<?xml version="1.0" encoding="UTF-8" standalone="no"?>
<svg
   xmlns:dc="http://purl.org/dc/elements/1.1/"
   xmlns:cc="http://creativecommons.org/ns#"
   xmlns:rdf="http://www.w3.org/1999/02/22-rdf-syntax-ns#"
   xmlns:svg="http://www.w3.org/2000/svg"
   xmlns="http://www.w3.org/2000/svg"
   xmlns:sodipodi="http://sodipodi.sourceforge.net/DTD/sodipodi-0.dtd"
   xmlns:inkscape="http://www.inkscape.org/namespaces/inkscape"
   version="1.1"
   viewBox="0 0 128 128"
   xml:space="preserve"
   id="svg32"
   sodipodi:docname="instagram.svg"
   width="128"
   height="128"
   inkscape:version="1.0.1 (3bc2e813f5, 2020-09-07)"><metadata
     id="metadata38"><rdf:RDF><cc:Work
         rdf:about=""><dc:format>image/svg+xml</dc:format><dc:type
           rdf:resource="http://purl.org/dc/dcmitype/StillImage" /><dc:title /></cc:Work></rdf:RDF></metadata><defs
     id="defs36" /><sodipodi:namedview
     pagecolor="#ffffff"
     bordercolor="#666666"
     borderopacity="1"
     objecttolerance="10"
     gridtolerance="10"
     guidetolerance="10"
     inkscape:pageopacity="0"
     inkscape:pageshadow="2"
     inkscape:window-width="1920"
     inkscape:window-height="1020"
     id="namedview34"
     showgrid="false"
     inkscape:zoom="1.3964844"
     inkscape:cx="256"
     inkscape:cy="256"
     inkscape:window-x="1920"
     inkscape:window-y="213"
     inkscape:window-maximized="1"
     inkscape:current-layer="svg32"
     inkscape:document-rotation="0" /><style
     type="text/css"
     id="style2">
	.st0{fill:url(#SVGID_1_);}
	.st1{fill:url(#SVGID_2_);}
	.st2{fill:#654C9F;}
</style><g
     id="Edges" /><g
     id="Symbol"
     transform="matrix(0.25,0,0,0.25,-0.3,-0.0625)"
     style="fill:#ffffff;fill-opacity:1"><g
       id="g29"
       style="fill:#ffffff;fill-opacity:1"><radialGradient
         cx="56.350101"
         cy="19.217899"
         gradientTransform="matrix(0.9986,-0.05233596,0.04448556,0.8488,-36.9742,443.8014)"
         gradientUnits="userSpaceOnUse"
         id="SVGID_1_"
         r="711.33502"><stop
           offset="0"
           style="stop-color:#FED576"
           id="stop5" /><stop
           offset="0.2634"
           style="stop-color:#F47133"
           id="stop7" /><stop
           offset="0.6091"
           style="stop-color:#BC3081"
           id="stop9" /><stop
           offset="1"
           style="stop-color:#4C63D2"
           id="stop11" /></radialGradient><path
         class="st0"
         d="M 96.1,23.2 C 79.9,29.5 66.2,37.9 52.5,51.6 38.8,65.2 30.4,79 24.1,95.1 18,110.7 13.9,128.6 12.7,154.8 c -1.2,26.2 -1.5,34.6 -1.5,101.4 0,66.8 0.3,75.2 1.5,101.4 1.2,26.2 5.4,44.1 11.4,59.7 6.3,16.2 14.7,29.9 28.4,43.6 13.7,13.7 27.4,22.1 43.6,28.4 15.6,6.1 33.5,10.2 59.7,11.4 26.2,1.2 34.6,1.5 101.4,1.5 66.8,0 75.2,-0.3 101.4,-1.5 26.2,-1.2 44.1,-5.4 59.7,-11.4 16.2,-6.3 29.9,-14.7 43.6,-28.4 13.7,-13.7 22.1,-27.4 28.4,-43.6 6.1,-15.6 10.2,-33.5 11.4,-59.7 1.2,-26.2 1.5,-34.6 1.5,-101.4 0,-66.8 -0.3,-75.2 -1.5,-101.4 -1.2,-26.2 -5.4,-44.1 -11.4,-59.7 C 484,79 475.6,65.2 462,51.6 448.3,37.9 434.6,29.5 418.4,23.2 402.8,17.1 384.9,13 358.7,11.8 332.5,10.6 324.1,10.3 257.3,10.3 c -66.8,0 -75.2,0.3 -101.4,1.5 -26.3,1.1 -44.2,5.3 -59.8,11.4 z M 356.6,56 c 24,1.1 37,5.1 45.7,8.5 11.5,4.5 19.7,9.8 28.3,18.4 8.6,8.6 13.9,16.8 18.4,28.3 3.4,8.7 7.4,21.7 8.5,45.7 1.2,25.9 1.4,33.7 1.4,99.4 0,65.7 -0.3,73.5 -1.4,99.4 -1.1,24 -5.1,37 -8.5,45.7 -4.5,11.5 -9.8,19.7 -18.4,28.3 -8.6,8.6 -16.8,13.9 -28.3,18.4 -8.7,3.4 -21.7,7.4 -45.7,8.5 -25.9,1.2 -33.7,1.4 -99.4,1.4 -65.7,0 -73.5,-0.3 -99.4,-1.4 -24,-1.1 -37,-5.1 -45.7,-8.5 C 100.6,443.6 92.4,438.3 83.8,429.7 75.2,421.1 69.9,412.9 65.4,401.4 62,392.7 58,379.7 56.9,355.7 55.7,329.8 55.5,322 55.5,256.3 c 0,-65.7 0.3,-73.5 1.4,-99.4 1.1,-24 5.1,-37 8.5,-45.7 4.5,-11.5 9.8,-19.7 18.4,-28.3 8.6,-8.6 16.8,-13.9 28.3,-18.4 8.7,-3.4 21.7,-7.4 45.7,-8.5 25.9,-1.2 33.7,-1.4 99.4,-1.4 65.7,0 73.5,0.2 99.4,1.4 z"
         id="path14"
         style="fill:#ffffff;fill-opacity:1" /><radialGradient
         cx="154.0732"
         cy="134.55009"
         gradientTransform="matrix(0.9986,-0.05233596,0.04448556,0.8488,-24.3617,253.2946)"
         gradientUnits="userSpaceOnUse"
         id="SVGID_2_"
         r="365.28009"><stop
           offset="0"
           style="stop-color:#FED576"
           id="stop16" /><stop
           offset="0.2634"
           style="stop-color:#F47133"
           id="stop18" /><stop
           offset="0.6091"
           style="stop-color:#BC3081"
           id="stop20" /><stop
           offset="1"
           style="stop-color:#4C63D2"
           id="stop22" /></radialGradient><path
         class="st1"
         d="m 130.9,256.3 c 0,69.8 56.6,126.3 126.3,126.3 69.7,0 126.3,-56.6 126.3,-126.3 C 383.5,186.6 327,130 257.2,130 187.4,130 130.9,186.5 130.9,256.3 Z m 208.3,0 c 0,45.3 -36.7,82 -82,82 -45.3,0 -82,-36.7 -82,-82 0,-45.3 36.7,-82 82,-82 45.3,0 82,36.7 82,82 z"
         id="path25"
         style="fill:#ffffff;fill-opacity:1" /><circle
         class="st2"
         cx="388.60001"
         cy="125"
         r="29.5"
         id="circle27"
         style="fill:#ffffff;fill-opacity:1" /></g></g></svg>
