<?xml version="1.0" encoding="UTF-8" standalone="no"?>
<svg
   xmlns:dc="http://purl.org/dc/elements/1.1/"
   xmlns:cc="http://creativecommons.org/ns#"
   xmlns:rdf="http://www.w3.org/1999/02/22-rdf-syntax-ns#"
   xmlns:svg="http://www.w3.org/2000/svg"
   xmlns="http://www.w3.org/2000/svg"
   xmlns:sodipodi="http://sodipodi.sourceforge.net/DTD/sodipodi-0.dtd"
   xmlns:inkscape="http://www.inkscape.org/namespaces/inkscape"
   version="1.1"
   id="Layer_1"
   x="0px"
   y="0px"
   viewBox="0 0 60 58.5"
   style="enable-background:new 0 0 60 58.5;"
   xml:space="preserve"
   sodipodi:docname="png.svg"
   inkscape:version="1.0.2 (e86c870879, 2021-01-15, custom)"><metadata
   id="metadata17"><rdf:RDF><cc:Work
       rdf:about=""><dc:format>image/svg+xml</dc:format><dc:type
         rdf:resource="http://purl.org/dc/dcmitype/StillImage" /></cc:Work></rdf:RDF></metadata><defs
   id="defs15">
	

		
	
			
		</defs><sodipodi:namedview
   pagecolor="#ffffff"
   bordercolor="#666666"
   borderopacity="1"
   objecttolerance="10"
   gridtolerance="10"
   guidetolerance="10"
   inkscape:pageopacity="0"
   inkscape:pageshadow="2"
   inkscape:window-width="1920"
   inkscape:window-height="1022"
   id="namedview13"
   showgrid="false"
   inkscape:zoom="12.222222"
   inkscape:cx="30"
   inkscape:cy="29.25"
   inkscape:window-x="0"
   inkscape:window-y="0"
   inkscape:window-maximized="1"
   inkscape:current-layer="Layer_1" />
<style
   type="text/css"
   id="style2">
	.st0{fill:#B30B00;}
	.st1{fill:#FFFFFF;}
</style>

<g
   id="Outlined_Mnemonics_Logos"
   transform="matrix(1.5203162,0,0,1.5203162,-15.802005,-15.275267)">
	<g
   id="DC_Trefoil">
		<path
   id="_256"
   class="st1"
   d="M 48.2,33.9 C 47,32.6 44.7,32 41.4,32 c -1.8,0 -3.7,0.2 -5.5,0.5 -1.2,-1.1 -2.2,-2.4 -3.2,-3.7 -0.7,-1 -1.4,-2 -2,-3.1 1,-2.8 1.6,-5.8 1.8,-8.8 0,-2.7 -1.1,-5.6 -4.1,-5.6 -1,0 -2,0.6 -2.5,1.5 -1.3,2.2 -0.8,6.7 1.3,11.4 -0.7,2.1 -1.5,4.2 -2.4,6.5 -0.8,2 -1.7,3.9 -2.8,5.7 -3.1,1.2 -9.6,4.2 -10.2,7.5 -0.2,1 0.1,2 0.9,2.6 0.7,0.6 1.7,1 2.7,0.9 3.9,0 7.8,-5.4 10.5,-10.1 1.5,-0.5 3,-1 4.6,-1.4 1.7,-0.4 3.3,-0.8 4.8,-1.1 4.2,3.6 7.9,4.2 9.7,4.2 2.5,0 3.5,-1.1 3.8,-2 0.4,-1.1 0.2,-2.3 -0.6,-3.1 z m -2.7,1.9 c -0.1,0.7 -0.9,1.2 -1.9,1.2 -0.3,0 -0.6,0 -0.9,-0.1 -2,-0.5 -3.9,-1.5 -5.5,-2.8 1.3,-0.2 2.7,-0.3 4,-0.3 0.9,0 1.8,0.1 2.7,0.2 0.9,0.2 1.9,0.6 1.6,1.8 z M 27.6,13.7 c 0.2,-0.3 0.5,-0.5 0.9,-0.6 1,0 1.2,1.1 1.2,2.1 -0.1,2.3 -0.5,4.5 -1.2,6.7 -1.7,-4.3 -1.5,-7.2 -0.9,-8.2 z m 5.6,19.2 c -1.1,0.2 -2.2,0.5 -3.3,0.8 -0.8,0.2 -1.6,0.5 -2.5,0.7 0.4,-0.9 0.8,-1.8 1.2,-2.6 0.5,-1.1 0.9,-2.2 1.3,-3.3 0.4,0.6 0.7,1.1 1.1,1.6 0.7,1 1.5,1.9 2.2,2.8 z m -12.1,5.8 c -2.5,4 -5,6.6 -6.4,6.6 -0.2,0 -0.5,-0.1 -0.6,-0.2 -0.3,-0.2 -0.4,-0.6 -0.3,-0.9 0.2,-1.5 3.1,-3.6 7.3,-5.5 z" />
	</g>
</g>
</svg>
