<?xml version="1.0" encoding="UTF-8" standalone="no"?>
<!-- Created with Inkscape (http://www.inkscape.org/) -->

<svg
   width="100"
   height="100"
   viewBox="0 0 26.458333 26.458333"
   version="1.1"
   id="svg5"
   sodipodi:docname="tft-arkaplan.svg"
   inkscape:version="1.1.1 (3bf5ae0d25, 2021-09-20)"
   xmlns:inkscape="http://www.inkscape.org/namespaces/inkscape"
   xmlns:sodipodi="http://sodipodi.sourceforge.net/DTD/sodipodi-0.dtd"
   xmlns="http://www.w3.org/2000/svg"
   xmlns:svg="http://www.w3.org/2000/svg">
  <sodipodi:namedview
     id="namedview7"
     pagecolor="#505050"
     bordercolor="#eeeeee"
     borderopacity="1"
     inkscape:pageshadow="0"
     inkscape:pageopacity="0"
     inkscape:pagecheckerboard="0"
     inkscape:document-units="px"
     showgrid="false"
     width="100mm"
     units="px"
     inkscape:snap-midpoints="true"
     inkscape:snap-intersection-paths="true"
     inkscape:object-paths="true"
     inkscape:snap-smooth-nodes="true"
     showguides="true"
     inkscape:guide-bbox="true"
     inkscape:snap-object-midpoints="true"
     inkscape:zoom="4"
     inkscape:cx="83.000001"
     inkscape:cy="33.625"
     inkscape:window-width="1920"
     inkscape:window-height="1022"
     inkscape:window-x="0"
     inkscape:window-y="0"
     inkscape:window-maximized="1"
     inkscape:current-layer="layer1" />
  <defs
     id="defs2" />
  <g
     inkscape:label="Layer 1"
     inkscape:groupmode="layer"
     id="layer1">
    <path
       id="rect844"
       style="fill:#f2f2f2;fill-rule:evenodd;stroke-width:0.999999"
       d="M 1.2109375 0.50195312 L 11.287109 10.607422 L 16.556641 6.9238281 L 15.494141 0.50195312 L 1.2109375 0.50195312 z M 16.513672 0.50195312 L 17.554688 6.7910156 L 24.714844 9.7363281 L 28.539062 0.50195312 L 16.513672 0.50195312 z M 29.623047 0.50195312 L 25.636719 10.113281 L 34.857422 13.900391 L 34.857422 0.50195312 L 29.623047 0.50195312 z M 37.484375 0.50195312 L 45.015625 4.2734375 L 48.787109 0.50195312 L 37.484375 0.50195312 z M 51.208984 0.50195312 L 54.988281 4.2734375 L 62.517578 0.50195312 L 51.208984 0.50195312 z M 65.144531 0.50195312 L 65.144531 13.900391 L 74.386719 10.121094 L 70.378906 0.50195312 L 65.144531 0.50195312 z M 71.457031 0.50195312 L 75.318359 9.7441406 L 82.521484 6.7910156 L 83.5625 0.50195312 L 71.457031 0.50195312 z M 84.574219 0.50195312 L 83.519531 6.9238281 L 88.789062 10.607422 L 98.798828 0.50195312 L 84.574219 0.50195312 z M 35.853516 0.8125 L 35.853516 13.443359 L 44.269531 5.0195312 L 35.853516 0.8125 z M 64.140625 0.8125 L 55.732422 5.0195312 L 64.140625 13.435547 L 64.140625 0.8125 z M 49.503906 1.203125 L 45.730469 4.9746094 L 49.503906 12.535156 L 49.503906 1.203125 z M 0.50195312 1.2109375 L 0.49414062 15.427734 L 6.9160156 16.521484 L 10.570312 11.316406 L 0.50195312 1.2109375 z M 50.5 1.2109375 L 50.5 12.535156 L 54.271484 4.9746094 L 50.5 1.2109375 z M 99.5 1.21875 L 89.490234 11.316406 L 93.160156 16.521484 L 99.574219 15.427734 L 99.5 1.21875 z M 44.984375 5.7207031 L 36.5625 14.144531 L 49.193359 14.144531 L 44.984375 5.7207031 z M 55.017578 5.7207031 L 50.808594 14.144531 L 63.431641 14.144531 L 55.017578 5.7207031 z M 17.169922 7.7148438 L 12.003906 11.324219 L 20.537109 19.835938 L 24.330078 10.660156 L 17.169922 7.7148438 z M 82.914062 7.7207031 L 75.701172 10.666016 L 79.570312 19.923828 L 88.074219 11.332031 L 82.914062 7.7207031 z M 25.261719 11.035156 L 21.304688 20.595703 L 25.001953 24.292969 L 34.472656 14.822266 L 25.261719 11.035156 z M 74.771484 11.042969 L 65.529297 14.822266 L 75.007812 24.300781 L 78.794922 20.683594 L 74.771484 11.042969 z M 11.287109 12.033203 L 7.7070312 17.132812 L 10.660156 24.330078 L 19.828125 20.537109 L 11.287109 12.033203 z M 88.78125 12.039062 L 80.277344 20.632812 L 89.380859 24.345703 L 92.369141 17.132812 L 88.78125 12.039062 z M 36.105469 15.148438 L 39.914062 24.345703 L 49.503906 20.373047 L 49.503906 15.148438 L 36.105469 15.148438 z M 50.5 15.148438 L 50.5 20.373047 L 60.087891 24.345703 L 63.898438 15.148438 L 50.5 15.148438 z M 35.181641 15.523438 L 25.710938 25.001953 L 29.410156 28.701172 L 38.990234 24.728516 L 35.181641 15.523438 z M 64.820312 15.53125 L 61.011719 24.728516 L 70.59375 28.701172 L 74.291016 25.001953 L 64.820312 15.53125 z M 0.49414062 16.439453 L 0.50195312 28.539062 L 9.7363281 24.714844 L 6.7832031 17.509766 L 0.49414062 16.439453 z M 99.574219 16.439453 L 93.292969 17.509766 L 90.302734 24.728516 L 99.640625 28.539062 L 99.574219 16.439453 z M 20.595703 21.304688 L 11.042969 25.253906 L 14.822266 34.472656 L 24.292969 25.001953 L 20.595703 21.304688 z M 79.503906 21.400391 L 75.716797 25.009766 L 85.179688 34.472656 L 88.996094 25.275391 L 79.503906 21.400391 z M 49.503906 21.458984 L 40.296875 25.275391 L 43.287109 32.488281 L 49.503906 33.550781 L 49.503906 21.458984 z M 50.5 21.458984 L 50.5 33.550781 L 56.707031 32.488281 L 59.705078 25.275391 L 50.5 21.458984 z M 10.121094 25.636719 L 0.50195312 29.623047 L 0.50195312 34.857422 L 13.900391 34.857422 L 10.121094 25.636719 z M 39.375 25.652344 L 30.177734 29.46875 L 38.724609 38.017578 L 42.365234 32.878906 L 39.375 25.652344 z M 60.626953 25.652344 L 57.630859 32.871094 L 61.277344 38.017578 L 69.826172 29.46875 L 60.626953 25.652344 z M 89.917969 25.652344 L 86.101562 34.857422 L 99.515625 34.857422 L 99.632812 29.615234 L 89.917969 25.652344 z M 25.001953 25.710938 L 15.523438 35.181641 L 24.728516 38.990234 L 28.701172 29.410156 L 25.001953 25.710938 z M 75 25.710938 L 71.300781 29.410156 L 75.273438 38.990234 L 84.478516 35.181641 L 75 25.710938 z M 29.46875 30.177734 L 25.652344 39.375 L 32.878906 42.365234 L 38.017578 38.724609 L 29.46875 30.177734 z M 70.533203 30.177734 L 61.986328 38.724609 L 67.123047 42.365234 L 74.349609 39.375 L 70.533203 30.177734 z M 43.154297 33.484375 L 39.441406 38.732422 L 49.503906 48.794922 L 49.503906 34.570312 L 43.154297 33.484375 z M 56.839844 33.484375 L 50.5 34.570312 L 50.5 48.800781 L 60.552734 38.740234 L 56.839844 33.484375 z M 0.8125 35.853516 L 5.0195312 44.269531 L 13.443359 35.853516 L 0.8125 35.853516 z M 86.560547 35.853516 L 94.982422 44.277344 L 99.191406 35.853516 L 86.560547 35.853516 z M 15.148438 36.105469 L 15.148438 49.503906 L 20.373047 49.503906 L 24.345703 39.914062 L 15.148438 36.105469 z M 84.855469 36.105469 L 75.65625 39.914062 L 79.628906 49.503906 L 84.855469 49.503906 L 84.855469 36.105469 z M 14.144531 36.5625 L 5.7207031 44.984375 L 14.144531 49.193359 L 14.144531 36.5625 z M 85.859375 36.5625 L 85.859375 49.193359 L 94.273438 44.984375 L 85.859375 36.5625 z M 99.5 37.470703 L 95.728516 45.021484 L 99.5 48.787109 L 99.5 37.470703 z M 0.50195312 37.484375 L 0.50195312 48.787109 L 4.2734375 45.015625 L 0.50195312 37.484375 z M 38.732422 39.441406 L 33.484375 43.154297 L 34.570312 49.503906 L 48.794922 49.503906 L 38.732422 39.441406 z M 61.269531 39.441406 L 51.214844 49.503906 L 65.433594 49.503906 L 66.517578 43.154297 L 61.269531 39.441406 z M 25.275391 40.296875 L 21.458984 49.503906 L 33.558594 49.503906 L 32.488281 43.287109 L 25.275391 40.296875 z M 74.726562 40.296875 L 67.515625 43.287109 L 66.445312 49.503906 L 78.542969 49.503906 L 74.726562 40.296875 z M 4.9746094 45.730469 L 1.203125 49.503906 L 12.535156 49.503906 L 4.9746094 45.730469 z M 95.019531 45.730469 L 87.46875 49.503906 L 98.798828 49.503906 L 95.019531 45.730469 z M 1.2109375 50.5 L 4.9746094 54.271484 L 12.535156 50.5 L 1.2109375 50.5 z M 15.148438 50.5 L 15.148438 63.898438 L 24.345703 60.087891 L 20.373047 50.5 L 15.148438 50.5 z M 21.458984 50.5 L 25.275391 59.705078 L 32.488281 56.707031 L 33.550781 50.5 L 21.458984 50.5 z M 34.570312 50.5 L 33.484375 56.839844 L 38.740234 60.552734 L 48.800781 50.5 L 34.570312 50.5 z M 51.208984 50.5 L 61.261719 60.552734 L 66.517578 56.839844 L 65.433594 50.5 L 51.208984 50.5 z M 66.445312 50.5 L 67.515625 56.707031 L 74.726562 59.705078 L 78.542969 50.5 L 66.445312 50.5 z M 79.628906 50.5 L 75.65625 60.087891 L 84.855469 63.898438 L 84.855469 50.5 L 79.628906 50.5 z M 87.46875 50.5 L 95.019531 54.271484 L 98.791016 50.5 L 87.46875 50.5 z M 14.144531 50.808594 L 5.7207031 55.017578 L 14.144531 63.431641 L 14.144531 50.808594 z M 85.859375 50.808594 L 85.859375 63.431641 L 94.273438 55.017578 L 85.859375 50.808594 z M 0.50195312 51.208984 L 0.50195312 62.517578 L 4.2734375 54.988281 L 0.50195312 51.208984 z M 50.5 51.208984 L 50.5 65.433594 L 56.839844 66.517578 L 60.552734 61.261719 L 50.5 51.208984 z M 99.5 51.208984 L 95.728516 54.980469 L 99.5 62.53125 L 99.5 51.208984 z M 49.503906 51.214844 L 39.441406 61.269531 L 43.154297 66.517578 L 49.503906 65.433594 L 49.503906 51.214844 z M 94.982422 55.726562 L 86.568359 64.140625 L 99.191406 64.140625 L 94.982422 55.726562 z M 5.0195312 55.734375 L 0.8125 64.140625 L 13.435547 64.140625 L 5.0195312 55.734375 z M 32.871094 57.630859 L 25.652344 60.626953 L 29.46875 69.826172 L 38.017578 61.277344 L 32.871094 57.630859 z M 67.130859 57.630859 L 61.978516 61.269531 L 70.533203 69.826172 L 74.349609 60.626953 L 67.130859 57.630859 z M 24.728516 61.011719 L 15.53125 64.820312 L 25.001953 74.291016 L 28.701172 70.59375 L 24.728516 61.011719 z M 75.273438 61.011719 L 71.300781 70.59375 L 75 74.291016 L 84.470703 64.820312 L 75.273438 61.011719 z M 61.269531 61.978516 L 57.630859 67.130859 L 60.626953 74.349609 L 69.826172 70.533203 L 61.269531 61.978516 z M 38.724609 61.986328 L 30.177734 70.533203 L 39.375 74.349609 L 42.365234 67.123047 L 38.724609 61.986328 z M 0.50195312 65.144531 L 0.50195312 70.615234 L 9.9804688 74.460938 L 13.892578 65.144531 L 0.50195312 65.144531 z M 86.109375 65.144531 L 89.992188 74.314453 L 99.5 70.371094 L 99.5 65.144531 L 86.109375 65.144531 z M 85.1875 65.521484 L 75.708984 75 L 79.40625 78.699219 L 89.070312 74.697266 L 85.1875 65.521484 z M 14.822266 65.529297 L 10.910156 74.837891 L 20.683594 78.802734 L 24.300781 75.007812 L 14.822266 65.529297 z M 49.503906 66.445312 L 43.287109 67.515625 L 40.296875 74.726562 L 49.503906 78.542969 L 49.503906 66.445312 z M 50.5 66.445312 L 50.5 78.542969 L 59.705078 74.726562 L 56.707031 67.515625 L 50.5 66.445312 z M 29.410156 71.300781 L 25.710938 75 L 35.181641 84.478516 L 38.990234 75.273438 L 29.410156 71.300781 z M 70.59375 71.300781 L 61.011719 75.273438 L 64.820312 84.470703 L 74.291016 75 L 70.59375 71.300781 z M 99.507812 71.464844 L 90.384766 75.236328 L 93.447266 82.462891 L 99.574219 83.554688 L 99.507812 71.464844 z M 0.50195312 71.693359 L 0.50195312 83.554688 L 6.6289062 82.455078 L 9.5957031 75.384766 L 0.50195312 71.693359 z M 89.460938 75.619141 L 80.173828 79.466797 L 88.751953 88.080078 L 92.517578 82.839844 L 89.460938 75.619141 z M 39.914062 75.65625 L 36.105469 84.855469 L 49.503906 84.855469 L 49.503906 79.628906 L 39.914062 75.65625 z M 60.087891 75.65625 L 50.5 79.628906 L 50.5 84.855469 L 63.898438 84.855469 L 60.087891 75.65625 z M 75 75.708984 L 65.529297 85.179688 L 74.734375 88.980469 L 78.699219 79.40625 L 75 75.708984 z M 25.009766 75.716797 L 21.400391 79.503906 L 25.291016 88.988281 L 34.472656 85.179688 L 25.009766 75.716797 z M 10.527344 75.759766 L 7.5585938 82.839844 L 11.324219 88.080078 L 19.923828 79.570312 L 10.527344 75.759766 z M 79.466797 80.173828 L 75.664062 89.357422 L 82.943359 92.369141 L 88.037109 88.78125 L 79.466797 80.173828 z M 20.632812 80.271484 L 12.039062 88.78125 L 17.132812 92.369141 L 24.367188 89.365234 L 20.632812 80.271484 z M 6.7617188 83.453125 L 0.50195312 84.566406 L 0.50195312 98.798828 L 10.607422 88.789062 L 6.7617188 83.453125 z M 93.314453 83.453125 L 89.46875 88.789062 L 99.5 98.806641 L 99.574219 84.566406 L 93.314453 83.453125 z M 36.5625 85.859375 L 44.984375 94.273438 L 49.193359 85.859375 L 36.5625 85.859375 z M 50.808594 85.859375 L 55.017578 94.273438 L 63.431641 85.859375 L 50.808594 85.859375 z M 34.857422 86.101562 L 25.666016 89.912109 L 29.623047 99.544922 L 34.857422 99.5 L 34.857422 86.101562 z M 65.144531 86.101562 L 65.144531 99.5 L 70.371094 99.5 L 74.349609 89.904297 L 65.144531 86.101562 z M 35.853516 86.560547 L 35.853516 99.191406 L 44.277344 94.982422 L 35.853516 86.560547 z M 64.140625 86.568359 L 55.726562 94.982422 L 64.140625 99.191406 L 64.140625 86.568359 z M 49.503906 87.46875 L 45.730469 95.019531 L 49.503906 98.798828 L 49.503906 87.46875 z M 50.5 87.46875 L 50.5 98.792969 L 54.271484 95.019531 L 50.5 87.46875 z M 11.316406 89.490234 L 1.21875 99.5 L 15.435547 99.5 L 16.521484 93.160156 L 11.316406 89.490234 z M 88.751953 89.498047 L 83.554688 93.160156 L 84.640625 99.5 L 98.791016 99.5 L 88.751953 89.498047 z M 75.28125 90.28125 L 71.464844 99.5 L 83.628906 99.5 L 82.558594 93.292969 L 75.28125 90.28125 z M 24.744141 90.289062 L 17.509766 93.292969 L 16.439453 99.5 L 28.544922 99.544922 L 24.744141 90.289062 z M 45.021484 95.728516 L 37.470703 99.5 L 48.787109 99.5 L 45.021484 95.728516 z M 54.980469 95.728516 L 51.208984 99.5 L 62.53125 99.5 L 54.980469 95.728516 z "
       transform="scale(0.26458333)" />
  </g>
</svg>
