<?xml version="1.0" encoding="UTF-8" standalone="no"?>
<svg
   xmlns:dc="http://purl.org/dc/elements/1.1/"
   xmlns:cc="http://creativecommons.org/ns#"
   xmlns:rdf="http://www.w3.org/1999/02/22-rdf-syntax-ns#"
   xmlns:svg="http://www.w3.org/2000/svg"
   xmlns="http://www.w3.org/2000/svg"
   xmlns:sodipodi="http://sodipodi.sourceforge.net/DTD/sodipodi-0.dtd"
   xmlns:inkscape="http://www.inkscape.org/namespaces/inkscape"
   width="128"
   height="128"
   viewBox="0 0 33.866668 33.866667"
   version="1.1"
   id="svg8"
   inkscape:version="1.0.1 (3bc2e813f5, 2020-09-07)"
   sodipodi:docname="tft.svg">
  <defs
     id="defs2" />
  <sodipodi:namedview
     id="base"
     pagecolor="#ffffff"
     bordercolor="#666666"
     borderopacity="1.0"
     inkscape:pageopacity="0.0"
     inkscape:pageshadow="2"
     inkscape:zoom="0.7"
     inkscape:cx="371.6608"
     inkscape:cy="313.62808"
     inkscape:document-units="mm"
     inkscape:current-layer="layer1"
     showgrid="false"
     showguides="true"
     inkscape:lockguides="false"
     inkscape:guide-bbox="true"
     inkscape:window-width="1920"
     inkscape:window-height="1020"
     inkscape:window-x="0"
     inkscape:window-y="0"
     inkscape:window-maximized="1"
     fit-margin-top="0"
     fit-margin-left="0"
     fit-margin-right="0"
     fit-margin-bottom="0"
     inkscape:document-rotation="0"
     units="px" />
  <metadata
     id="metadata5">
    <rdf:RDF>
      <cc:Work
         rdf:about="">
        <dc:format>image/svg+xml</dc:format>
        <dc:type
           rdf:resource="http://purl.org/dc/dcmitype/StillImage" />
        <dc:title></dc:title>
      </cc:Work>
    </rdf:RDF>
  </metadata>
  <g
     inkscape:label="Layer 1"
     inkscape:groupmode="layer"
     id="layer1"
     transform="translate(-12.004952,-42.403095)">
    <flowRoot
       xml:space="preserve"
       id="flowRoot4806"
       style="font-style:normal;font-variant:normal;font-weight:normal;font-stretch:normal;font-size:40px;line-height:1.25;font-family:Quattrocento;-inkscape-font-specification:Quattrocento;letter-spacing:0px;word-spacing:0px;fill:#000000;fill-opacity:1;stroke:none"><flowRegion
         id="flowRegion4808"
         style="font-style:normal;font-variant:normal;font-weight:normal;font-stretch:normal;font-family:Quattrocento;-inkscape-font-specification:Quattrocento"><rect
           id="rect4810"
           width="400.48209"
           height="93.978516"
           x="191.92899"
           y="322.98395"
           style="font-style:normal;font-variant:normal;font-weight:normal;font-stretch:normal;font-family:Quattrocento;-inkscape-font-specification:Quattrocento" /></flowRegion><flowPara
         id="flowPara4812" /></flowRoot>
    <g
       id="g6066"
       transform="matrix(0.17791098,0,0,0.17791098,9.8691395,35.023964)">
      <path
         id="path21"
         transform="scale(0.26458333)"
         d="m 475.47656,160.26367 a 291.87586,291.87586 0 0 1 221.50196,282.89649 291.87586,291.87586 0 0 1 -291.875,291.875 A 291.87586,291.87586 0 0 1 113.22656,443.16016 291.87586,291.87586 0 0 1 323.55078,163.07617 359.73075,359.73075 0 0 0 45.373047,512.99023 359.73075,359.73075 0 0 0 405.10352,872.7207 359.73075,359.73075 0 0 0 764.83398,512.99023 359.73075,359.73075 0 0 0 475.47656,160.26367 Z m 220.42578,451.97852 1.82618,0.85547 -0.26368,0.56445 c -0.46153,0.98525 -0.66811,1.91322 -0.61718,2.78516 0.0227,0.85838 0.71493,1.60808 2.07617,2.24609 l 17.21289,8.0625 c 2.89781,1.35745 4.74642,3.33619 5.54297,5.93555 0.79657,2.59938 0.38685,5.62387 -1.22852,9.07226 h -0.002 c -1.60179,3.41942 -3.60904,5.74675 -6.02539,6.98242 -2.41635,1.23566 -5.39239,1.02523 -8.92774,-0.63086 l -16.86523,-7.90039 c -1.27504,-0.59726 -2.25627,-0.61617 -2.94336,-0.0547 -0.67354,0.53258 -1.23564,1.2781 -1.68359,2.23437 l -0.26368,0.56445 -1.82617,-0.85546 5.92578,-12.64844 1.82618,0.85547 -0.26563,0.56445 c -0.46153,0.98527 -0.66616,1.91322 -0.61523,2.78516 0.0227,0.85838 0.71491,1.60811 2.07617,2.24609 l 16.95117,7.94141 c 2.5211,1.18097 4.63745,1.34018 6.34766,0.48046 1.68121,-0.87326 3.01687,-2.36702 4.00781,-4.48242 1.16739,-2.49212 1.39232,-4.63061 0.67383,-6.41601 -0.71849,-1.78538 -2.06271,-3.13944 -4.03321,-4.0625 l -17.30078,-8.10352 c -1.27503,-0.59729 -2.25624,-0.6162 -2.94336,-0.0547 -0.67351,0.53259 -1.23369,1.27616 -1.68164,2.23243 l -0.26562,0.5664 -1.82422,-0.85547 z m -579.52343,8.25586 11.75976,24.33007 -7.45898,3.8711 -1.08594,-2.2461 1.75391,-1.11523 c 0.89509,-0.57476 1.57063,-1.27367 2.02539,-2.09766 0.48357,-0.83789 0.41185,-1.90464 -0.21485,-3.20117 l -2.02539,-4.19336 -23.769529,11.48828 c -1.354154,0.65444 -2.051431,1.4185 -2.091797,2.29102 -0.0126,0.85856 0.2169,1.77821 0.691407,2.75781 l 0.480468,0.99219 -1.814453,0.87891 -6.496094,-13.44141 1.816407,-0.87695 0.480469,0.99414 c 0.459513,0.95078 1.014903,1.69411 1.666015,2.23242 0.693846,0.5532 1.673677,0.52477 2.941406,-0.0879 l 23.986331,-11.59375 -2.00586,-4.14844 c -0.61269,-1.2677 -1.39847,-1.9716 -2.35547,-2.11328 -0.9282,-0.15546 -1.89393,-0.061 -2.90039,0.2832 l -1.96289,0.68164 -1.08594,-2.24804 z m 552.93164,24.61718 c 1.51992,0.9498 2.56209,2.22979 3.12695,3.83789 0.53742,1.59164 0.22215,3.36066 -0.94727,5.3086 v 0.002 c -1.16943,1.94795 -2.58281,3.06002 -4.24023,3.33399 -1.66838,0.23004 -3.28809,-0.0896 -4.85742,-0.95704 l 1.13672,-1.89257 c 1.11944,0.37346 2.09542,0.36099 2.92968,-0.0352 0.85075,-0.42235 1.582,-1.14112 2.19141,-2.15625 0.60941,-1.01513 0.89135,-1.98232 0.84766,-2.9043 -0.0272,-0.94941 -0.46831,-1.83015 -1.32422,-2.64257 z m 12.35351,2.92579 c 0.77518,-0.0478 1.49194,0.12614 2.15039,0.52148 0.87796,0.52707 1.35507,1.31739 1.43164,2.37109 0.0766,1.05371 -0.20721,2.11557 -0.84961,3.18555 -0.85049,-0.51059 -1.77929,-0.82628 -2.78906,-0.94726 -1.02072,-0.16479 -2.03037,-0.006 -3.0293,0.47656 -1.02635,0.46621 -1.94294,1.37049 -2.75,2.71484 -2.09175,3.48435 -2.45795,6.64446 -1.09765,9.47656 1.33289,2.81568 4.05652,5.45714 8.17187,7.92774 4.11535,2.47057 7.74599,3.6046 10.89063,3.40234 3.13368,-0.24617 5.82052,-2.23357 8.06055,-5.96484 0.47763,-0.79564 0.89735,-1.58873 1.25976,-2.37891 0.36241,-0.79017 0.63514,-1.52229 0.81641,-2.19726 l -6.62696,-3.97852 c -1.20718,-0.72471 -2.18088,-0.84358 -2.92187,-0.35547 -0.72454,0.4608 -1.35882,1.14538 -1.90234,2.05078 l -0.0996,0.16407 -1.72852,-1.03907 6.42383,-10.69922 1.72851,1.03711 -0.0977,0.16602 c -0.46118,0.7682 -0.68657,1.54762 -0.67578,2.33789 -2e-4,0.74636 0.64409,1.50517 1.93359,2.2793 l 7.4082,4.44726 c -0.1925,1.75063 -0.56174,3.45179 -1.10547,5.10352 -0.57112,1.63527 -1.3923,3.3456 -2.46289,5.1289 -1.9106,3.18257 -4.12986,5.45177 -6.66015,6.80664 -2.51382,1.32748 -5.20837,1.83736 -8.08399,1.5293 -2.88657,-0.35192 -5.85309,-1.44322 -8.89843,-3.27148 -2.96308,-1.77882 -5.24812,-3.87824 -6.85547,-6.29883 -1.61835,-2.4645 -2.41721,-5.14536 -2.39453,-8.04297 -0.005,-2.91412 0.94153,-5.94842 2.83593,-9.10352 1.82824,-3.04535 3.63414,-5.05911 5.41797,-6.04101 0.89191,-0.49096 1.72482,-0.76078 2.5,-0.80859 z m -546.51953,8.46289 1.93164,3.20703 -19.86133,24.61718 c -0.66837,0.81316 -1.02993,1.5166 -1.08398,2.10938 -0.0375,0.6202 0.18354,1.32796 0.66211,2.12305 l 0.32031,0.5332 -1.72656,1.04102 -6.8086,-11.31055 1.72852,-1.03906 0.56836,0.94531 c 0.99016,1.64498 2.143,2.07141 3.45898,1.2793 0.21947,-0.13204 0.43678,-0.29862 0.6504,-0.50196 0.21365,-0.20334 0.43818,-0.45096 0.67382,-0.74219 l 3.61524,-4.41796 -6.50977,-10.81446 -5.25781,1.03516 c -0.80653,0.14942 -1.47129,0.38186 -1.99219,0.69531 -1.34342,0.80862 -1.47004,2.1163 -0.38086,3.92578 l 0.56836,0.94727 -1.72656,1.03906 -6.039063,-10.03516 1.726562,-1.03906 0.470701,0.78125 c 0.47859,0.79506 1.03938,1.2602 1.68164,1.39649 0.6588,0.16378 1.79515,0.0974 3.40821,-0.20118 z m -3.33789,3.01757 c -1.10251,0.40217 -2.19694,0.72378 -3.2832,0.9668 -1.08629,0.2429 -2.41332,0.52044 -3.98242,0.83008 l -9.25,1.75781 5.59375,9.29492 5.66211,-6.88281 c 0.94227,-1.16477 1.84061,-2.24608 2.69531,-3.24609 0.8547,-1.00002 1.70947,-1.90728 2.56445,-2.72071 z m 532.03711,12.69336 1.61133,1.21094 -0.375,0.49805 c -0.653,0.87025 -1.04368,1.73759 -1.17188,2.60156 -0.1537,0.84475 0.37132,1.71839 1.57422,2.62109 l 15.20508,11.40821 c 2.55955,1.9206 3.96197,4.23608 4.21094,6.94336 0.24894,2.70725 -0.76918,5.58303 -3.05469,8.6289 -2.26631,3.02025 -4.7084,4.88928 -7.32617,5.60547 -2.61778,0.71617 -5.48673,-0.0983 -8.60938,-2.4414 l -14.89648,-11.17774 c -1.1262,-0.84508 -2.08379,-1.06177 -2.8711,-0.65234 -0.76809,0.38382 -1.46776,0.99715 -2.10156,1.84179 l -0.375,0.5 -1.61328,-1.21093 8.38281,-11.17188 1.61329,1.20899 -0.375,0.5 c -0.65301,0.87025 -1.04365,1.73758 -1.17188,2.60156 -0.1537,0.84475 0.37132,1.71839 1.57422,2.62109 l 14.97266,11.23438 c 2.22681,1.67093 4.26553,2.25995 6.11523,1.76758 1.82413,-0.51158 3.43781,-1.69989 4.83984,-3.56836 1.65173,-2.20123 2.3075,-4.25006 1.96875,-6.14454 -0.33877,-1.89446 -1.37867,-3.49477 -3.11914,-4.80078 l -15.27929,-11.46679 c -1.1262,-0.84508 -2.0838,-1.06177 -2.8711,-0.65235 -0.7681,0.38383 -1.46776,0.99715 -2.10156,1.8418 l -0.375,0.5 -1.61328,-1.21094 z m -518.04687,1.54297 7.71679,10.35157 c 4.91581,6.59309 4.8986,11.73414 -0.0527,15.42578 -1.35967,1.01377 -2.72375,1.593 -4.09375,1.73632 -1.34436,0.12422 -2.62511,-0.0388 -3.83985,-0.49023 -1.19559,-0.42578 -2.29067,-0.98567 -3.28711,-1.67969 l -4.41992,11.49805 c -0.52885,1.43211 -0.82098,2.64628 -0.875,3.64453 -0.0539,0.99825 0.21574,1.89612 0.8086,2.69141 l 0.0859,0.11523 -1.61523,1.20508 -0.40234,-0.53906 c -1.18592,-1.59055 -2.03523,-2.89164 -2.55079,-3.9043 -0.47075,-1.00614 -0.66387,-1.96111 -0.57812,-2.86328 0.11137,-0.9213 0.4338,-2.04053 0.96875,-3.35742 l 4.78516,-11.65039 -2.38086,-3.19336 -7.92774,5.91015 c -1.12877,0.8416 -1.618,1.68407 -1.46679,2.5293 0.19602,0.85175 0.611,1.70224 1.24218,2.54883 l 0.37305,0.5 -1.61719,1.20508 -8.34961,-11.19922 1.61719,-1.20508 0.37305,0.50195 c 0.6312,0.84659 1.31732,1.47166 2.05859,1.87696 0.78604,0.41181 1.74428,0.19706 2.87305,-0.64454 l 19.04687,-14.20312 c 1.1288,-0.8416 1.60783,-1.69748 1.4375,-2.56836 -0.15118,-0.84523 -0.54257,-1.69052 -1.17383,-2.53711 l -0.37304,-0.5 z m 3.77539,8.91992 -11.69727,8.72071 2.00781,2.69531 c 1.68325,2.25756 3.33076,3.42311 4.94336,3.49805 1.63172,0.10053 3.44821,-0.59601 5.44922,-2.08789 2.05233,-1.53021 3.18005,-3.06897 3.38281,-4.61719 0.20284,-1.54825 -0.50886,-3.41317 -2.13476,-5.59375 z m 25.625,14.05665 c 0.17462,-0.025 0.34335,-0.0241 0.50585,0.004 0.69524,0.11515 1.29579,0.4623 1.80079,1.04102 0.48395,0.55453 0.73567,1.18424 0.75586,1.88867 0.0443,0.68339 -0.35536,1.39245 -1.19922,2.12891 -0.81971,0.71542 -1.57821,1.01566 -2.27344,0.90039 -0.69523,-0.11515 -1.28362,-0.44928 -1.76758,-1.00391 -0.50502,-0.57862 -0.76888,-1.22135 -0.78906,-1.92578 8.6e-4,-0.68034 0.41074,-1.37638 1.23047,-2.0918 0.63286,-0.55234 1.21244,-0.86644 1.73633,-0.9414 z m -9.90039,2.46093 9.18359,10.52344 -1.51953,1.32617 -0.41016,-0.4707 c -0.71541,-0.81971 -1.48236,-1.38242 -2.30078,-1.6875 -0.79431,-0.32612 -1.75751,0.005 -2.89062,0.99414 L 149.7832,725.2207 c -1.13312,0.98895 -1.6037,1.90956 -1.41211,2.76172 0.21569,0.83112 0.68107,1.65686 1.39649,2.47656 l 0.41211,0.47071 -1.51953,1.32422 -9.18555,-10.52344 1.51953,-1.32422 0.41016,0.46875 c 0.71541,0.8197 1.47132,1.39263 2.26562,1.71875 0.81842,0.30508 1.79266,-0.0364 2.92578,-1.02539 l 17.57618,-15.33984 c 1.13311,-0.98896 1.59263,-1.89936 1.37695,-2.73047 -0.1915,-0.85216 -0.64582,-1.68811 -1.36133,-2.50782 l -0.41016,-0.46875 z m 468.7871,10.2168 1.48829,1.36133 -0.42188,0.45898 c -0.7132,0.77879 -1.19797,1.59405 -1.45508,2.44336 -0.23559,0.82573 0.16469,1.71313 1.20313,2.66406 l 19.61133,17.95899 6.38671,-6.97266 c 0.64837,-0.70795 1.01349,-1.41533 1.09571,-2.12109 0.0804,-0.75094 -0.029,-1.45875 -0.33008,-2.125 -0.30108,-0.66623 -0.66887,-1.26246 -1.09961,-1.78711 l -2.33008,-2.78516 1.68555,-1.83984 7.38476,7.2168 -17.37695,18.97461 -1.48633,-1.36133 0.42188,-0.46094 c 0.73481,-0.80237 1.21959,-1.61568 1.45508,-2.44141 0.2119,-0.84732 -0.23654,-1.77916 -1.34571,-2.79492 l -17.20508,-15.75586 c -1.10915,-1.01578 -2.06336,-1.36955 -2.86523,-1.0625 -0.8255,0.28543 -1.60701,0.82849 -2.3418,1.63086 l -0.41992,0.46094 -1.48828,-1.36133 z m -457.24218,3.43359 10.06054,9.68946 -1.39843,1.45117 -0.44922,-0.43164 c -0.78367,-0.75472 -1.59575,-1.2493 -2.4375,-1.48242 -0.81953,-0.25618 -1.7516,0.15692 -2.79492,1.24023 l -6.72461,6.98438 11.23632,10.82031 6.72461,-6.98242 c 1.0433,-1.08332 1.42156,-2.03053 1.13477,-2.83985 -0.26459,-0.8324 -0.78859,-1.62614 -1.57227,-2.38086 l -0.44921,-0.43164 1.39843,-1.45312 10.06055,9.68945 -1.39844,1.45313 -0.44922,-0.4336 c -0.78364,-0.75472 -1.59575,-1.2493 -2.4375,-1.48242 -0.81955,-0.25618 -1.75162,0.15887 -2.79492,1.24219 l -16.34766,16.97461 c -0.97669,1.01414 -1.32194,1.92698 -1.03515,2.73632 0.33204,0.8085 0.87805,1.57803 1.63867,2.31055 l 0.44922,0.43359 -1.39844,1.45118 -10.06054,-9.68946 1.39843,-1.45117 0.44922,0.43164 c 0.78365,0.75472 1.58475,1.2614 2.4043,1.51758 0.84175,0.23307 1.78482,-0.19213 2.82812,-1.27539 l 7.79102,-8.08984 -11.23633,-10.82227 -7.79102,8.08984 c -1.04331,1.08332 -1.43258,2.04067 -1.16796,2.87305 0.28679,0.80935 0.8218,1.59294 1.60546,2.34766 l 0.44922,0.43164 -1.39843,1.45312 -10.06055,-9.68945 1.39844,-1.45313 0.44922,0.4336 c 0.78367,0.75472 1.58474,1.25945 2.40429,1.51562 0.84173,0.23307 1.7848,-0.19212 2.82813,-1.27539 l 16.3164,-16.93945 c 0.97673,-1.01415 1.30985,-1.93801 1,-2.76953 -0.28681,-0.80935 -0.81164,-1.57998 -1.57226,-2.3125 l -0.44922,-0.43359 z m 446.23437,8.66407 1.34375,1.50195 -0.46484,0.41601 c -0.81031,0.72608 -1.3619,1.50187 -1.65625,2.32422 -0.31569,0.79849 0.0276,1.75686 1.03125,2.87696 l 12.68554,14.15625 c 2.13551,2.38319 3.06154,4.92706 2.77735,7.63086 -0.28417,2.70379 -1.84368,5.32593 -4.67969,7.86718 -2.81217,2.51989 -5.5721,3.87489 -8.2793,4.06641 -2.7072,0.1915 -5.36344,-1.1648 -7.96875,-4.07227 l -12.42968,-13.87109 c -0.93964,-1.04862 -1.83545,-1.44906 -2.6875,-1.20117 -0.82822,0.22652 -1.63543,0.69173 -2.42188,1.39648 l -0.46484,0.41602 -1.34571,-1.5 10.4043,-9.32227 1.34375,1.50196 -0.46484,0.41601 c -0.81031,0.72607 -1.3619,1.49994 -1.65625,2.32227 -0.31569,0.79851 0.0276,1.7588 1.03125,2.8789 l 12.49414,13.94141 c 1.85789,2.07337 3.74212,3.04964 5.65234,2.92773 1.88888,-0.14563 3.70167,-0.99956 5.44141,-2.55859 2.04954,-1.83652 3.09337,-3.71648 3.13086,-5.64062 0.0375,-1.92419 -0.6689,-3.69585 -2.1211,-5.31641 l -12.75,-14.22852 c -0.93961,-1.04859 -1.83541,-1.44906 -2.6875,-1.20117 -0.82822,0.22652 -1.63543,0.69371 -2.42187,1.39844 l -0.46484,0.41601 -1.34571,-1.50195 z m -409.4414,25.03906 10.79101,7.60156 -1.16016,1.64649 -0.90429,-0.63477 c -1.56966,-1.10569 -2.79513,-1.031 -3.67969,0.22461 -0.1474,0.20938 -0.27902,0.45043 -0.39258,0.72266 -0.11364,0.27229 -0.21839,0.58969 -0.3164,0.95117 l -4.66797,15.79297 c -0.41845,1.4275 -0.87123,2.79228 -1.35742,4.09375 -0.48623,1.30149 -0.95604,2.49672 -1.41016,3.58593 0.87272,-0.79435 1.83167,-1.62619 2.875,-2.49609 1.04333,-0.8699 2.19662,-1.7594 3.46289,-2.66797 l 13.10742,-9.4375 c 0.32577,-0.24013 0.61605,-0.48532 0.8711,-0.73633 0.29961,-0.25864 0.52249,-0.49384 0.66992,-0.70312 0.90298,-1.28189 0.49224,-2.52982 -1.23438,-3.7461 l -0.90234,-0.63671 1.16016,-1.64844 9.57617,6.74609 -1.16211,1.64649 -0.7461,-0.52344 c -0.75867,-0.53443 -1.47177,-0.74491 -2.14062,-0.62891 -0.65041,0.0899 -1.64837,0.6194 -2.9961,1.58789 l -24.54296,17.58789 -2.86524,-2.01757 8.63477,-30.26172 c 0.32809,-1.02143 0.37498,-1.81072 0.14062,-2.36719 -0.21593,-0.58263 -0.70429,-1.14138 -1.46289,-1.67578 l -0.50976,-0.35938 z m 373.0332,5.5664 1.18945,1.62696 -0.5039,0.36914 c -0.85277,0.62281 -1.48863,1.32549 -1.90821,2.10742 -0.3937,0.76306 -0.17611,1.71258 0.6543,2.84961 l 15.68359,21.47461 7.63672,-5.57813 c 0.77526,-0.56619 1.2724,-1.18567 1.49219,-1.86132 0.22677,-0.72041 0.25753,-1.43788 0.0937,-2.1504 -0.16378,-0.71253 -0.40387,-1.36748 -0.72266,-1.96679 l -1.73632,-3.19141 2.01562,-1.4707 5.81641,8.53125 -20.77735,15.17383 -1.18945,-1.62696 0.50391,-0.36914 c 0.87861,-0.64169 1.51447,-1.34436 1.9082,-2.10742 0.37483,-0.78891 0.11945,-1.78935 -0.76758,-3.0039 l -13.75976,-18.83985 c -0.88703,-1.21456 -1.75292,-1.75029 -2.59961,-1.60742 -0.86557,0.11691 -1.73858,0.49688 -2.61719,1.13867 l -0.50391,0.36719 -1.1875,-1.62695 z m -216.16406,3.03711 c 2.53333,0 4.51898,0.61316 5.95898,1.83985 1.44002,1.2 2.16016,2.81318 2.16016,4.83984 0,1.86666 -0.58642,3.69379 -1.75977,5.48047 -1.17333,1.76 -2.81325,3.79914 -4.91992,6.11914 l -6.75977,7.48047 h 9.24024 c 1.2,0 2.01278,-0.30658 2.43945,-0.91992 0.42667,-0.61332 0.73326,-1.30674 0.91992,-2.08008 l 0.16016,-0.7207 h 1.67969 l -0.19922,6.91992 h -17.20117 v -2.91992 l 6.68164,-7.71875 c 1.41333,-1.65335 2.53271,-3.08125 3.35937,-4.28125 0.82667,-1.22666 1.4131,-2.38518 1.75977,-3.47852 0.37333,-1.09332 0.56054,-2.25378 0.56054,-3.48047 0,-1.52 -0.33333,-2.74637 -1,-3.67969 -0.64,-0.93334 -1.66674,-1.40039 -3.08007,-1.40039 -1.2,0 -2.11977,0.27985 -2.75977,0.83985 -0.64,0.56 -1.08031,1.29256 -1.32031,2.19922 -0.21334,0.88 -0.32031,1.85323 -0.32031,2.91992 -0.96,0 -1.77279,-0.17285 -2.43946,-0.51953 -0.66666,-0.37332 -1,-1.06674 -1,-2.08008 0,-1.54666 0.65232,-2.82651 1.95899,-3.83984 1.33333,-1.01335 3.29419,-1.51954 5.88086,-1.51954 z m 23.27929,0 c 2.08,0 3.81452,0.6008 5.20118,1.80078 1.38664,1.2 2.41144,2.9058 3.07812,5.11915 0.69332,2.18665 1.04102,4.7607 1.04102,7.7207 0,2.96 -0.3477,5.54642 -1.04102,7.75976 -0.69334,2.18666 -1.73248,3.89246 -3.11914,5.11915 -1.36,1.22664 -3.09254,1.83984 -5.19922,1.83984 -2.18666,0 -3.97467,-0.6132 -5.36133,-1.83984 -1.38668,-1.22669 -2.41342,-2.94684 -3.08008,-5.16016 -0.64,-2.21334 -0.95898,-4.79977 -0.95898,-7.75977 0,-2.96 0.31898,-5.53209 0.95898,-7.71875 0.66666,-2.18668 1.6934,-3.88008 3.08008,-5.08008 1.38666,-1.19999 3.18705,-1.80078 5.40039,-1.80078 z m 45,0 c 2.53332,0 4.52094,0.61316 5.96094,1.83985 1.44,1.2 2.1582,2.81318 2.1582,4.83984 0,1.86666 -0.58645,3.69379 -1.75976,5.48047 -1.17334,1.76 -2.81327,3.79914 -4.91992,6.11914 l -6.75977,7.48047 h 9.24023 c 1.2,0 2.01277,-0.30658 2.43946,-0.91992 0.42666,-0.61332 0.73326,-1.30674 0.91992,-2.08008 l 0.16016,-0.7207 h 1.67968 l -0.19922,6.91992 h -17.19921 v -2.91992 l 6.67968,-7.71875 c 1.41335,-1.65335 2.53272,-3.08125 3.35938,-4.28125 0.82668,-1.22666 1.41311,-2.38518 1.75976,-3.47852 0.37335,-1.09332 0.56055,-2.25378 0.56055,-3.48047 0,-1.52 -0.33332,-2.74637 -1,-3.67969 -0.64,-0.93334 -1.66676,-1.40039 -3.08008,-1.40039 -1.2,0 -2.11976,0.27985 -2.75976,0.83985 -0.64,0.56 -1.08032,1.29256 -1.32032,2.19922 -0.2134,0.88 -0.32031,1.85323 -0.32031,2.91992 -0.96,0 -1.77279,-0.17285 -2.43945,-0.51953 -0.66668,-0.37332 -1,-1.06674 -1,-2.08008 0,-1.54666 0.6523,-2.82651 1.95898,-3.83984 1.33332,-1.01335 3.29418,-1.51954 5.88086,-1.51954 z m -22.19922,0.24024 h 2.5586 v 24.16015 c 0,1.25332 0.32094,2.05372 0.96094,2.40039 0.64,0.32001 1.41362,0.47852 2.32031,0.47852 h 1.95898 v 1.67969 h -15.24023 v -1.67969 h 2.68164 c 0.90668,0 1.67836,-0.15851 2.31836,-0.47852 0.64,-0.34667 0.96094,-1.14707 0.96094,-2.40039 v -21 c -1.01335,1.22666 -1.93311,2.22666 -2.75977,3 -0.8,0.77332 -1.60039,1.16016 -2.40039,1.16016 -0.58668,0 -1.06614,-0.20156 -1.43945,-0.60156 -0.37335,-0.4 -0.56055,-0.9186 -0.56055,-1.5586 0.8,-0.21341 1.63953,-0.53435 2.51953,-0.96093 0.90666,-0.42666 2.01363,-1.13249 3.32031,-2.11914 z m -22.80078,1.91992 c -1.94668,0 -3.31914,1.09261 -4.11914,3.2793 -0.77331,2.16 -1.16015,5.22785 -1.16015,9.20117 0,3.94668 0.38684,7.02496 1.16015,9.23828 0.77334,2.21334 2.13342,3.32031 4.08008,3.32031 1.94668,0 3.2924,-1.10697 4.03906,-3.32031 0.77334,-2.21332 1.16016,-5.2916 1.16016,-9.23828 0,-3.97332 -0.38682,-7.04117 -1.16016,-9.20117 -0.74666,-2.18669 -2.08,-3.2793 -4,-3.2793 z m -152.17382,8.66211 21.05273,11.91797 -3.92773,7.42773 -2.17188,-1.23047 0.80664,-1.91406 c 0.40877,-0.98205 0.52443,-1.96363 0.3457,-2.94726 -0.13505,-0.99571 -0.82889,-1.84926 -2.08203,-2.5586 l -7.01758,-3.97265 -6.28906,11.11132 10.06641,5.69922 -1.1582,2.04688 -10.06836,-5.69922 -7.06836,12.49023 8.06054,4.56446 c 1.30888,0.74086 2.44508,0.9428 3.40821,0.60546 1.00674,-0.34939 1.84057,-0.94496 2.5,-1.78515 l 1.30859,-1.63086 2.17188,1.23047 -4.42969,7.14453 -22.39063,-12.67383 0.99414,-1.75586 0.54297,0.3086 c 0.91898,0.52018 1.79888,0.81668 2.64063,0.88867 0.88536,0.06 1.67554,-0.52265 2.36914,-1.74805 l 11.60937,-20.51172 c 0.74087,-1.30887 0.87177,-2.31876 0.39258,-3.03125 -0.46345,-0.74033 -1.16841,-1.3781 -2.11523,-1.91406 l -0.54297,-0.30859 z m 327.5625,0.0215 c 0.69772,-0.0247 1.36808,0.0328 2.00976,0.17188 2.55033,0.52898 4.62896,2.14006 6.23438,4.83398 0.96652,1.62185 1.51715,3.36146 1.65429,5.2168 0.16454,1.83897 -0.30092,3.6812 -1.39843,5.52734 -1.09763,1.84618 -3.00711,3.57938 -5.72852,5.20118 l -2.59766,1.54882 4.15235,6.96875 c 0.72078,1.2095 1.50892,1.78205 2.36523,1.71875 0.86743,-0.10708 1.75497,-0.43003 2.66211,-0.9707 l 1.36133,-0.81055 1.03125,1.73047 -12.82227,7.64258 -1.0332,-1.73242 0.53711,-0.31836 c 0.93463,-0.55698 1.63256,-1.1969 2.0957,-1.91992 0.44679,-0.75052 0.28559,-1.77246 -0.48437,-3.06446 l -12.04102,-20.20507 c -0.7208,-1.2095 -1.52244,-1.77304 -2.40625,-1.69336 -0.85631,0.0632 -1.73935,0.3656 -2.64648,0.90625 l -0.53516,0.31836 -1.03125,-1.73243 11.58594,-6.90429 c 2.59769,-1.54808 4.94195,-2.35958 7.03516,-2.4336 z m -1.89258,3.33985 c -1.3571,-0.0504 -2.91165,0.44589 -4.66407,1.49023 l -2.80468,1.67188 8.3789,14.06054 2.18555,-1.30273 c 2.50147,-1.49075 3.9621,-3.10529 4.37891,-4.84375 0.42789,-1.7823 -0.13708,-3.97839 -1.69336,-6.58984 -1.37605,-2.30907 -2.87285,-3.72772 -4.49024,-4.25391 -0.40844,-0.13842 -0.83865,-0.21564 -1.29101,-0.23242 z m -219.29492,2.37695 h 10.39843 v 3 h -10.39843 z m 103.83984,0 h 10.39844 v 3 h -10.39844 z m 87.50586,10 c 0.67494,-0.009 1.34046,0.0373 1.99609,0.13867 2.63806,0.36304 5.03995,1.50558 7.20313,3.42969 2.17872,1.88157 4.01428,4.4344 5.50976,7.65625 1.49549,3.22185 2.26625,6.28574 2.31055,9.19336 0.06,2.86511 -0.61521,5.43657 -2.02734,7.71484 -1.41206,2.27828 -3.58405,4.09823 -6.51563,5.45899 -3.07669,1.42813 -5.94221,1.94676 -8.59375,1.55469 -2.65154,-0.39207 -5.04359,-1.55658 -7.17773,-3.49415 -2.10513,-1.95104 -3.90491,-4.53792 -5.40039,-7.75976 -1.49549,-3.22182 -2.302,-6.25167 -2.41993,-9.08985 -0.0889,-2.85164 0.57832,-5.40309 2.00391,-7.65234 1.44106,-2.29175 3.70063,-4.15197 6.77734,-5.58008 2.19869,-1.02058 4.30915,-1.5433 6.33399,-1.57031 z m -0.71485,2.9043 c -1.40818,-0.0696 -2.91643,0.26983 -4.52734,1.01758 -3.25087,1.50896 -5.0062,3.76988 -5.26562,6.7832 -0.2303,2.99983 0.6567,6.66347 2.66406,10.98828 1.99398,4.29579 4.21843,7.3376 6.67187,9.12695 2.48245,1.7759 5.33482,1.91541 8.55664,0.41992 3.25088,-1.50895 4.97031,-3.76974 5.15821,-6.78515 0.21694,-3.02886 -0.67202,-6.6925 -2.66602,-10.98828 -2.00746,-4.32479 -4.23194,-7.3666 -6.67187,-9.12696 -1.20547,-0.8869 -2.51174,-1.36596 -3.91993,-1.43554 z m -258.10351,1.90039 22.50781,8.86719 -2.85547,7.90429 -2.32226,-0.91601 0.5332,-2.00782 c 0.27971,-1.05917 0.24801,-2.06841 -0.0957,-3.02929 -0.31396,-0.94912 -1.17098,-1.70067 -2.57032,-2.25196 l -7.32421,-2.88476 -5.08399,12.90625 10.76172,4.24023 -0.86133,2.1875 -10.76367,-4.23828 -3.72852,9.4668 c -0.55128,1.39931 -0.54768,2.43299 0.0137,3.10156 0.57378,0.63877 1.36662,1.15783 2.3789,1.55664 l 1.47461,0.58008 -0.73828,1.87695 -13.88867,-5.47265 0.73828,-1.875 0.58008,0.22851 c 0.98252,0.38708 1.89667,0.55771 2.74023,0.51172 0.88507,-0.064 1.58546,-0.75244 2.10157,-2.0625 l 8.70898,-22.10547 c 0.51611,-1.31001 0.47268,-2.2909 -0.13086,-2.9414 -0.57378,-0.63879 -1.35148,-1.15006 -2.33398,-1.53711 l -0.58204,-0.23047 z m 236.5,4.55859 2.96094,7.86524 -2.35938,0.8125 -0.89844,-1.875 c -0.46463,-0.95688 -1.07948,-1.7086 -1.84375,-2.25782 -0.7747,-0.57947 -1.84344,-0.63462 -3.20507,-0.16601 l -4.40235,1.51367 8.58985,24.96484 c 0.48934,1.42216 1.16383,2.20416 2.02539,2.34766 0.85115,0.11313 1.7915,-0.007 2.82031,-0.36133 l 1.04492,-0.35937 0.6543,1.90625 -14.11524,4.85742 -0.65625,-1.90625 1.04493,-0.35938 c 0.99851,-0.34358 1.80235,-0.80594 2.41406,-1.38867 0.63151,-0.62339 0.71987,-1.60222 0.26172,-2.93359 l -8.66797,-25.18945 -4.35742,1.49804 c -1.33141,0.45811 -2.1248,1.15442 -2.37891,2.08789 -0.26452,0.90323 -0.28519,1.87584 -0.0625,2.91602 l 0.44531,2.02929 -2.36133,0.8125 -2.50586,-8.02148 z m -210.14453,5.6836 23.24804,6.6875 -2.09179,8.13867 -2.39844,-0.68946 0.33984,-2.04882 c 0.16882,-1.05023 0.053,-2.03422 -0.34961,-2.94922 -0.36311,-0.93692 -1.23723,-1.60382 -2.62109,-2.00196 l -7.75,-2.23046 -3.5293,12.27148 11.11719,3.19727 -0.65039,2.26171 -11.11719,-3.19921 -3.96875,13.79296 8.90235,2.56055 c 1.44536,0.41582 2.59887,0.34901 3.45703,-0.20312 0.89774,-0.57416 1.56794,-1.34776 2.01367,-2.31836 l 0.89453,-1.89063 2.39844,0.69141 -2.64453,7.97851 -24.72657,-7.11328 0.5586,-1.9375 0.59961,0.17188 c 1.01483,0.29195 1.93999,0.37591 2.77539,0.25 0.87498,-0.14791 1.50526,-0.89891 1.89453,-2.25196 l 6.51758,-22.64843 c 0.41585,-1.4454 0.30757,-2.45965 -0.32422,-3.04102 -0.62304,-0.61211 -1.45831,-1.06831 -2.50391,-1.36914 l -0.59961,-0.17187 z m 166.06445,7.90625 1.82031,8.20507 -2.45117,0.47071 -0.625,-1.98242 c -0.32489,-1.01292 -0.87507,-1.83526 -1.64844,-2.46876 -0.74796,-0.67095 -1.82804,-0.8712 -3.24218,-0.5996 l -7.91993,1.52148 2.40821,12.53906 11.36133,-2.18359 0.44335,2.31055 -11.36132,2.18164 2.70703,14.0957 9.09765,-1.74805 c 1.47699,-0.28369 2.47319,-0.86709 2.98829,-1.74804 0.54047,-0.91843 0.7901,-1.91131 0.74804,-2.97852 l -0.0586,-2.08984 2.45117,-0.47071 1.25391,8.3125 -25.26563,4.85352 -0.38086,-1.98047 0.61328,-0.11719 c 1.03706,-0.1993 1.89812,-0.54475 2.58594,-1.03515 0.7132,-0.528 0.93743,-1.48251 0.67188,-2.86524 l -4.44532,-23.14453 c -0.28366,-1.47699 -0.8374,-2.33219 -1.66406,-2.56445 -0.83268,-0.26369 -1.78504,-0.29312 -2.85351,-0.0879 l -0.61133,0.11718 -0.38086,-1.98046 z m -137.41406,0.1582 13.73633,2.53125 -0.36524,1.98242 -0.61328,-0.11328 c -1.03849,-0.1915 -1.98543,-0.17032 -2.8418,0.0625 -0.82487,0.23836 -1.3659,1.04882 -1.62109,2.43359 l -4.81836,26.15235 9.29883,1.71484 c 0.9441,0.17411 1.73704,0.10762 2.37891,-0.19727 0.67912,-0.33037 1.22193,-0.79952 1.62695,-1.4082 0.40504,-0.60868 0.71545,-1.23545 0.93164,-1.8789 l 1.12305,-3.45313 2.45507,0.45313 -2.20117,10.08789 -25.30078,-4.66407 0.36524,-1.98242 0.61328,0.11328 c 1.06998,0.19729 2.0169,0.17612 2.84179,-0.0625 0.83067,-0.26991 1.38365,-1.14396 1.65625,-2.62304 l 4.22657,-22.94141 c 0.2726,-1.47908 0.0665,-2.4773 -0.61915,-2.99414 -0.67987,-0.54831 -1.55504,-0.92 -2.625,-1.11719 l -0.61328,-0.11328 z m 109.5957,4.92383 1.03516,8.33789 -2.48438,0.23633 -0.43554,-2.03125 c -0.23056,-1.07097 -0.71544,-1.95728 -1.45704,-2.65821 -0.70987,-0.70395 -1.81332,-0.98423 -3.31054,-0.84179 l -7.83789,0.74609 1.31445,13.80859 11.51562,-1.0957 0.22266,2.3418 -11.51562,1.0957 0.96289,10.13086 c 0.14236,1.49725 0.61591,2.41642 1.41992,2.75781 0.80091,0.30957 1.74306,0.41155 2.82617,0.3086 l 1.57617,-0.14844 0.19141,2.00586 -14.86133,1.41406 -0.18945,-2.00781 0.62109,-0.0586 c 1.05124,-0.10003 1.94262,-0.36202 2.67383,-0.78515 0.76006,-0.45803 1.07279,-1.38739 0.93945,-2.78907 l -2.25,-23.65234 c -0.13329,-1.40165 -0.61641,-2.25598 -1.44922,-2.5625 -0.80093,-0.30954 -1.7261,-0.41436 -2.77734,-0.31445 l -0.62305,0.0586 -0.18945,-2.00781 z m -70.04297,0.74218 c 0.48002,-7.5e-4 0.97071,0.023 1.47266,0.0684 2.83643,0.25658 4.98563,0.99589 6.44922,2.22071 1.46361,1.22484 2.1327,2.53912 2.00586,3.9414 -0.0922,1.01985 -0.5135,1.76969 -1.26367,2.24805 -0.71539,0.44936 -1.64761,0.62136 -2.79493,0.51758 0.0894,-0.98795 10e-4,-1.96007 -0.26562,-2.91602 -0.23509,-0.95307 -0.72285,-1.76772 -1.46485,-2.44531 -0.71009,-0.67472 -1.73568,-1.07229 -3.07421,-1.19336 -1.84845,-0.16731 -3.32634,0.196 -4.43555,1.0918 -1.10922,0.89572 -1.73878,2.17283 -1.88867,3.83008 -0.1154,1.27478 0.009,2.37783 0.375,3.31054 0.40022,0.90374 1.11071,1.75555 2.13086,2.55469 1.02304,0.76729 2.42387,1.61675 4.20312,2.54883 2.70078,1.40102 4.76334,2.92142 6.18945,4.56054 1.42615,1.63916 2.02863,3.68471 1.80664,6.13868 -0.27387,3.02765 -1.55372,5.28922 -3.84179,6.78515 -2.2562,1.49884 -5.18583,2.08554 -8.78711,1.75977 -3.12325,-0.28251 -5.44213,-1.11785 -6.95508,-2.50781 -1.48105,-1.38709 -2.13084,-3.08401 -1.94922,-5.0918 0.0864,-0.9561 0.4597,-1.69401 1.11719,-2.21289 0.66031,-0.55075 1.53167,-0.7777 2.61523,-0.67969 -0.0544,1.31243 0.0883,2.57928 0.42774,3.79883 0.3424,1.18765 0.94288,2.18923 1.80078,3.00586 0.86082,0.78473 2.03923,1.24535 3.53711,1.38086 2.13528,0.19326 3.85489,-0.16576 5.1582,-1.07617 1.30618,-0.94214 2.04678,-2.38602 2.22266,-4.33008 0.10658,-1.17919 -0.0433,-2.18736 -0.44922,-3.02735 -0.37123,-0.86898 -1.06579,-1.70281 -2.08594,-2.50195 -0.98829,-0.79627 -2.38809,-1.66269 -4.19922,-2.59765 -2.85435,-1.47916 -4.94078,-3.09749 -6.25976,-4.85547 -1.28713,-1.75509 -1.81257,-3.9394 -1.57617,-6.55274 0.16428,-1.81659 0.75009,-3.32157 1.75781,-4.51562 1.04242,-1.22308 2.37392,-2.09896 3.99609,-2.62696 1.24269,-0.41773 2.58534,-0.62858 4.02539,-0.63086 z m 40.25196,1.75782 0.24804,8.40039 -2.49609,0.002 -0.24219,-2.06445 c -0.12901,-1.0559 -0.51364,-1.96696 -1.1543,-2.73438 -0.6087,-0.79944 -1.63226,-1.19857 -3.07226,-1.19726 l -8.06445,0.008 0.0117,12.76758 11.56641,-0.0117 0.004,2.35156 -11.56836,0.0117 0.0117,14.35156 9.26367,-0.008 c 1.504,-0.001 2.5904,-0.38569 3.26172,-1.1543 0.70327,-0.80065 1.13588,-1.72903 1.29492,-2.78515 l 0.33398,-2.06446 2.4961,-0.002 -0.33008,8.40039 -25.72461,0.0234 v -2.01563 l 0.62305,-0.002 c 1.056,-9.6e-4 1.96865,-0.17662 2.73632,-0.5293 0.79965,-0.38473 1.19853,-1.28145 1.19727,-2.68945 l -0.0234,-23.56836 c -10e-4,-1.504 -0.38597,-2.44678 -1.15429,-2.83008 -0.76838,-0.41532 -1.69716,-0.62403 -2.78516,-0.62304 l -0.62305,0.002 -0.002,-2.01563 z"
         style="fill:#a00300;fill-opacity:1;stroke:none;stroke-width:2;stroke-linecap:round;stroke-linejoin:round;stroke-miterlimit:4;stroke-dasharray:none;stroke-opacity:1"
         inkscape:connector-curvature="0" />
      <g
         style="fill:#a00300;fill-opacity:1;stroke:none"
         transform="matrix(1.0495509,0,0,1.0495509,-4.9044847,-3.472469)"
         id="g4745">
        <g
           style="fill:#a00300;fill-opacity:1;stroke:none"
           id="g4657">
          <path
             inkscape:connector-curvature="0"
             id="path4642"
             transform="scale(0.26458333)"
             d="m 392.41406,219.13672 -5.61133,5.61133 44.89649,44.89648 h -11.22461 l -39.28516,-39.2832 -5.61133,5.61133 33.67188,33.67187 h -11.22656 l -28.0586,-28.05859 -33.67187,33.67187 h 44.89453 l -5.61133,-5.61328 5.61133,-5.61133 11.22461,11.22461 h 56.125 z m -22.45117,33.66992 5.61133,5.61328 -11.22461,11.22461 H 353.125 Z"
             style="fill:#a00300;fill-opacity:1;stroke:none;stroke-width:1px;stroke-linecap:butt;stroke-linejoin:miter;stroke-opacity:1" />
          <path
             inkscape:connector-curvature="0"
             id="path4646"
             d="m 106.79626,55.009795 -1.48526,1.484636 16.33419,16.334189 h 2.9699 z"
             style="fill:#a00300;fill-opacity:1;stroke:none;stroke-width:0.264583px;stroke-linecap:butt;stroke-linejoin:miter;stroke-opacity:1" />
        </g>
        <g
           style="fill:#a00300;fill-opacity:1;stroke:none"
           id="g4663"
           transform="rotate(-45,106.79627,115.84707)">
          <path
             style="fill:#a00300;fill-opacity:1;stroke:none;stroke-width:1px;stroke-linecap:butt;stroke-linejoin:miter;stroke-opacity:1"
             d="m 392.41406,219.13672 -5.61133,5.61133 44.89649,44.89648 h -11.22461 l -39.28516,-39.2832 -5.61133,5.61133 33.67188,33.67187 h -11.22656 l -28.0586,-28.05859 -33.67187,33.67187 h 44.89453 l -5.61133,-5.61328 5.61133,-5.61133 11.22461,11.22461 h 56.125 z m -22.45117,33.66992 5.61133,5.61328 -11.22461,11.22461 H 353.125 Z"
             transform="scale(0.26458333)"
             id="path4659"
             inkscape:connector-curvature="0" />
          <path
             style="fill:#a00300;fill-opacity:1;stroke:none;stroke-width:0.264583px;stroke-linecap:butt;stroke-linejoin:miter;stroke-opacity:1"
             d="m 106.79626,55.009795 -1.48526,1.484636 16.33419,16.334189 h 2.9699 z"
             id="path4661"
             inkscape:connector-curvature="0" />
        </g>
        <g
           style="fill:#a00300;fill-opacity:1;stroke:none"
           transform="rotate(45,106.79631,115.84698)"
           id="g4669">
          <path
             inkscape:connector-curvature="0"
             id="path4665"
             transform="scale(0.26458333)"
             d="m 392.41406,219.13672 -5.61133,5.61133 44.89649,44.89648 h -11.22461 l -39.28516,-39.2832 -5.61133,5.61133 33.67188,33.67187 h -11.22656 l -28.0586,-28.05859 -33.67187,33.67187 h 44.89453 l -5.61133,-5.61328 5.61133,-5.61133 11.22461,11.22461 h 56.125 z m -22.45117,33.66992 5.61133,5.61328 -11.22461,11.22461 H 353.125 Z"
             style="fill:#a00300;fill-opacity:1;stroke:none;stroke-width:1px;stroke-linecap:butt;stroke-linejoin:miter;stroke-opacity:1" />
          <path
             inkscape:connector-curvature="0"
             id="path4667"
             d="m 106.79626,55.009795 -1.48526,1.484636 16.33419,16.334189 h 2.9699 z"
             style="fill:#a00300;fill-opacity:1;stroke:none;stroke-width:0.264583px;stroke-linecap:butt;stroke-linejoin:miter;stroke-opacity:1" />
        </g>
        <g
           style="fill:#a00300;fill-opacity:1;stroke:none"
           id="g4675"
           transform="rotate(90,106.79628,115.84701)">
          <path
             style="fill:#a00300;fill-opacity:1;stroke:none;stroke-width:1px;stroke-linecap:butt;stroke-linejoin:miter;stroke-opacity:1"
             d="m 392.41406,219.13672 -5.61133,5.61133 44.89649,44.89648 h -11.22461 l -39.28516,-39.2832 -5.61133,5.61133 33.67188,33.67187 h -11.22656 l -28.0586,-28.05859 -33.67187,33.67187 h 44.89453 l -5.61133,-5.61328 5.61133,-5.61133 11.22461,11.22461 h 56.125 z m -22.45117,33.66992 5.61133,5.61328 -11.22461,11.22461 H 353.125 Z"
             transform="scale(0.26458333)"
             id="path4671"
             inkscape:connector-curvature="0" />
          <path
             style="fill:#a00300;fill-opacity:1;stroke:none;stroke-width:0.264583px;stroke-linecap:butt;stroke-linejoin:miter;stroke-opacity:1"
             d="m 106.79626,55.009795 -1.48526,1.484636 16.33419,16.334189 h 2.9699 z"
             id="path4673"
             inkscape:connector-curvature="0" />
        </g>
        <g
           style="fill:#a00300;fill-opacity:1;stroke:none"
           transform="rotate(180,106.7963,115.84701)"
           id="g4681">
          <path
             inkscape:connector-curvature="0"
             id="path4677"
             transform="scale(0.26458333)"
             d="m 392.41406,219.13672 -5.61133,5.61133 44.89649,44.89648 h -11.22461 l -39.28516,-39.2832 -5.61133,5.61133 33.67188,33.67187 h -11.22656 l -28.0586,-28.05859 -33.67187,33.67187 h 44.89453 l -5.61133,-5.61328 5.61133,-5.61133 11.22461,11.22461 h 56.125 z m -22.45117,33.66992 5.61133,5.61328 -11.22461,11.22461 H 353.125 Z"
             style="fill:#a00300;fill-opacity:1;stroke:none;stroke-width:1px;stroke-linecap:butt;stroke-linejoin:miter;stroke-opacity:1" />
          <path
             inkscape:connector-curvature="0"
             id="path4679"
             d="m 106.79626,55.009795 -1.48526,1.484636 16.33419,16.334189 h 2.9699 z"
             style="fill:#a00300;fill-opacity:1;stroke:none;stroke-width:0.264583px;stroke-linecap:butt;stroke-linejoin:miter;stroke-opacity:1" />
        </g>
        <g
           style="fill:#a00300;fill-opacity:1;stroke:none"
           id="g4687"
           transform="rotate(135,106.79629,115.84701)">
          <path
             style="fill:#a00300;fill-opacity:1;stroke:none;stroke-width:1px;stroke-linecap:butt;stroke-linejoin:miter;stroke-opacity:1"
             d="m 392.41406,219.13672 -5.61133,5.61133 44.89649,44.89648 h -11.22461 l -39.28516,-39.2832 -5.61133,5.61133 33.67188,33.67187 h -11.22656 l -28.0586,-28.05859 -33.67187,33.67187 h 44.89453 l -5.61133,-5.61328 5.61133,-5.61133 11.22461,11.22461 h 56.125 z m -22.45117,33.66992 5.61133,5.61328 -11.22461,11.22461 H 353.125 Z"
             transform="scale(0.26458333)"
             id="path4683"
             inkscape:connector-curvature="0" />
          <path
             style="fill:#a00300;fill-opacity:1;stroke:none;stroke-width:0.264583px;stroke-linecap:butt;stroke-linejoin:miter;stroke-opacity:1"
             d="m 106.79626,55.009795 -1.48526,1.484636 16.33419,16.334189 h 2.9699 z"
             id="path4685"
             inkscape:connector-curvature="0" />
        </g>
        <g
           style="fill:#a00300;fill-opacity:1;stroke:none"
           id="g4713"
           transform="rotate(-135,106.79631,115.84701)">
          <path
             style="fill:#a00300;fill-opacity:1;stroke:none;stroke-width:1px;stroke-linecap:butt;stroke-linejoin:miter;stroke-opacity:1"
             d="m 392.41406,219.13672 -5.61133,5.61133 44.89649,44.89648 h -11.22461 l -39.28516,-39.2832 -5.61133,5.61133 33.67188,33.67187 h -11.22656 l -28.0586,-28.05859 -33.67187,33.67187 h 44.89453 l -5.61133,-5.61328 5.61133,-5.61133 11.22461,11.22461 h 56.125 z m -22.45117,33.66992 5.61133,5.61328 -11.22461,11.22461 H 353.125 Z"
             transform="scale(0.26458333)"
             id="path4709"
             inkscape:connector-curvature="0" />
          <path
             style="fill:#a00300;fill-opacity:1;stroke:none;stroke-width:0.264583px;stroke-linecap:butt;stroke-linejoin:miter;stroke-opacity:1"
             d="m 106.79626,55.009795 -1.48526,1.484636 16.33419,16.334189 h 2.9699 z"
             id="path4711"
             inkscape:connector-curvature="0" />
        </g>
        <g
           style="fill:#a00300;fill-opacity:1;stroke:none"
           transform="rotate(-90,106.79627,115.84702)"
           id="g4719">
          <path
             inkscape:connector-curvature="0"
             id="path4715"
             transform="scale(0.26458333)"
             d="m 392.41406,219.13672 -5.61133,5.61133 44.89649,44.89648 h -11.22461 l -39.28516,-39.2832 -5.61133,5.61133 33.67188,33.67187 h -11.22656 l -28.0586,-28.05859 -33.67187,33.67187 h 44.89453 l -5.61133,-5.61328 5.61133,-5.61133 11.22461,11.22461 h 56.125 z m -22.45117,33.66992 5.61133,5.61328 -11.22461,11.22461 H 353.125 Z"
             style="fill:#a00300;fill-opacity:1;stroke:none;stroke-width:1px;stroke-linecap:butt;stroke-linejoin:miter;stroke-opacity:1" />
          <path
             inkscape:connector-curvature="0"
             id="path4717"
             d="m 106.79626,55.009795 -1.48526,1.484636 16.33419,16.334189 h 2.9699 z"
             style="fill:#a00300;fill-opacity:1;stroke:none;stroke-width:0.264583px;stroke-linecap:butt;stroke-linejoin:miter;stroke-opacity:1" />
        </g>
      </g>
      <g
         style="fill:#a00300;fill-opacity:1;stroke:none"
         transform="translate(0.3398921,-0.1889881)"
         id="g4804">
        <path
           style="fill:#a00300;fill-opacity:1;stroke:none;stroke-width:0.264583px;stroke-linecap:butt;stroke-linejoin:miter;stroke-opacity:1"
           d="m 67.468749,111.27406 v 2.625 h 8.399997 v 32.79938 h 8.399997 v -32.79938 h 8.400005 v -2.625 z"
           id="path4789"
           inkscape:connector-curvature="0" />
        <path
           style="fill:#a00300;fill-opacity:1;stroke:none;stroke-width:0.264583px;stroke-linecap:butt;stroke-linejoin:miter;stroke-opacity:1"
           d="m 97.918749,111.27406 v 35.42438 h 8.399991 v -16.52438 h 9.45 v -2.625 h -9.45 v -13.65 h 9.45 v -2.625 z"
           id="path4791"
           inkscape:connector-curvature="0"
           sodipodi:nodetypes="ccccccccccc" />
        <path
           inkscape:connector-curvature="0"
           id="path4799"
           d="m 121.01874,111.27406 v 2.625 h 8.4 v 32.79938 h 8.39999 v -32.79938 h 8.40001 v -2.625 z"
           style="fill:#a00300;fill-opacity:1;stroke:none;stroke-width:0.264583px;stroke-linecap:butt;stroke-linejoin:miter;stroke-opacity:1" />
      </g>
      <path
         inkscape:connector-curvature="0"
         id="path5970"
         d="m 109.95763,88.145005 c -0.69804,0 -1.28067,0.151321 -1.74822,0.454237 -0.46096,0.296333 -0.80666,0.714716 -1.03714,1.254704 -0.2239,0.539986 -0.3359,1.175388 -0.3359,1.906344 0,0.730957 0.112,1.369592 0.3359,1.91616 0.23048,0.546571 0.57618,0.971423 1.03714,1.274342 0.46096,0.302919 1.04037,0.454237 1.7384,0.454237 0.6651,0 1.22833,-0.151318 1.6893,-0.454237 0.46096,-0.302919 0.8099,-0.724538 1.04697,-1.264523 0.24365,-0.546571 0.36535,-1.185206 0.36535,-1.91616 0,-0.730957 -0.1217,-1.366359 -0.36535,-1.906344 -0.23707,-0.546571 -0.58601,-0.96819 -1.04697,-1.264523 -0.45438,-0.302916 -1.01438,-0.454237 -1.67948,-0.454237 z m -12.173422,0.0098 c -0.414864,0 -0.78695,0.07217 -1.116208,0.217043 -0.322676,0.138287 -0.579525,0.342889 -0.770496,0.612881 -0.184386,0.263408 -0.276471,0.582726 -0.276471,0.958082 0,0.539983 0.148085,0.977771 0.444418,1.313614 0.302919,0.335844 0.760621,0.628777 1.373042,0.879017 0.388527,0.158044 0.691679,0.309362 0.908989,0.454234 0.223896,0.144876 0.38168,0.303176 0.473874,0.47439 0.09878,0.164629 0.14831,0.368713 0.14831,0.612365 0,0.401699 -0.12545,0.711317 -0.375688,0.928627 -0.250237,0.210727 -0.595939,0.316259 -1.037145,0.316259 -0.309504,0 -0.559374,-0.07268 -0.750342,-0.217556 -0.190971,-0.151458 -0.332587,-0.345845 -0.424781,-0.582912 -0.09219,-0.243652 -0.144955,-0.500504 -0.158128,-0.770495 -0.223896,0 -0.398365,0.06247 -0.523484,0.187586 -0.125119,0.118534 -0.187584,0.276834 -0.187584,0.47439 0,0.414867 0.164248,0.750867 0.493509,1.00769 0.335843,0.256823 0.826397,0.38499 1.471745,0.38499 0.744127,0 1.333746,-0.174469 1.768369,-0.523484 0.441206,-0.349012 0.661974,-0.836332 0.661974,-1.461926 0,-0.50706 -0.161536,-0.915228 -0.484209,-1.224732 -0.322672,-0.309502 -0.773909,-0.583036 -1.353404,-0.820103 -0.381942,-0.158046 -0.684578,-0.306131 -0.908474,-0.444418 -0.223898,-0.144872 -0.385429,-0.305892 -0.484208,-0.483692 -0.09219,-0.184386 -0.137975,-0.408387 -0.137975,-0.671793 0,-0.342429 0.105018,-0.615964 0.315743,-0.820105 0.210725,-0.20414 0.50741,-0.305925 0.889352,-0.305925 0.276577,0 0.493593,0.06247 0.651639,0.187587 0.16463,0.125119 0.279861,0.282903 0.345716,0.473871 0.07244,0.190971 0.108521,0.388589 0.108521,0.592731 0.237067,0 0.424984,-0.05277 0.563272,-0.158131 0.144872,-0.111951 0.21704,-0.272968 0.21704,-0.483693 0,-0.289748 -0.161018,-0.5466 -0.48369,-0.770496 -0.322675,-0.223895 -0.777145,-0.335896 -1.363226,-0.335896 z m -14.040485,0.0987 v 0.414961 h 0.128156 c 0.217313,0 0.405231,0.03932 0.563274,0.118341 0.164632,0.07902 0.247013,0.263705 0.247013,0.553452 v 4.840015 c 0,0.309502 -0.07915,0.507122 -0.237194,0.59273 -0.158043,0.07902 -0.349194,0.118338 -0.573093,0.118338 h -0.128156 v 0.414962 h 2.874243 v -0.414962 h -0.128159 c -0.223896,0 -0.415047,-0.03932 -0.57309,-0.118338 -0.158044,-0.08561 -0.237196,-0.283228 -0.237196,-0.59273 v -2.311487 h 3.210657 v 2.311487 c 0,0.309502 -0.07915,0.507122 -0.237193,0.59273 -0.158046,0.07902 -0.349195,0.118338 -0.573093,0.118338 h -0.128156 v 0.414962 h 2.874243 v -0.41494 H 90.69782 c -0.217311,0 -0.408461,-0.03608 -0.57309,-0.108519 -0.158047,-0.07902 -0.237197,-0.263707 -0.237197,-0.553455 v -4.849834 c 0,-0.309504 0.07915,-0.503888 0.237197,-0.582909 0.158043,-0.08561 0.349194,-0.128159 0.57309,-0.128159 h 0.128159 v -0.414961 h -2.874243 v 0.414961 h 0.128156 c 0.223898,0 0.415047,0.04255 0.573093,0.128159 0.158043,0.07902 0.237193,0.273405 0.237193,0.582909 v 1.995228 h -3.210657 v -1.995228 c 2e-6,-0.309504 0.07915,-0.503888 0.237196,-0.582909 0.158043,-0.08561 0.349194,-0.128159 0.57309,-0.128159 h 0.128159 v -0.414961 z m 7.939051,0 v 0.414961 h 0.128156 c 0.223895,0 0.415046,0.04255 0.573093,0.128159 0.158043,0.07902 0.237193,0.273405 0.237193,0.582909 v 4.80074 c 0,0.309502 -0.07915,0.507122 -0.237193,0.59273 -0.158047,0.07902 -0.349198,0.118338 -0.573093,0.118338 h -0.128156 v 0.414962 h 2.874242 v -0.414962 h -0.128159 c -0.223895,0 -0.415046,-0.03932 -0.57309,-0.118338 -0.158046,-0.08561 -0.237196,-0.283228 -0.237196,-0.59273 v -4.80074 c 0,-0.309504 0.07915,-0.503888 0.237196,-0.582909 0.158044,-0.08561 0.349195,-0.128159 0.57309,-0.128159 h 0.128159 v -0.414961 z m 8.884206,0 -0.0496,1.728575 h 0.51367 l 0.0496,-0.424778 c 0.0263,-0.217312 0.0953,-0.404712 0.20722,-0.562758 0.11195,-0.164629 0.3128,-0.247012 0.60255,-0.247012 h 0.94826 v 5.481836 c 0,0.289748 -0.0824,0.474432 -0.24701,0.553455 -0.15805,0.07244 -0.34545,0.108519 -0.56276,0.108519 h -0.22737 v 0.414962 h 3.07216 v -0.414962 h -0.22738 c -0.2239,0 -0.41453,-0.03932 -0.57257,-0.118338 -0.15805,-0.08561 -0.2372,-0.283228 -0.2372,-0.59273 v -5.432742 h 0.95808 c 0.29634,0 0.50042,0.08238 0.61237,0.247012 0.11195,0.158046 0.18089,0.345446 0.20722,0.562758 l 0.0496,0.424778 h 0.51366 l -0.0496,-1.728575 z m 13.52683,0 v 0.414961 h 0.12816 c 0.21731,0 0.40523,0.03932 0.56327,0.118341 0.16463,0.07902 0.24701,0.263705 0.24701,0.553452 v 4.889109 c 0,0.289748 -0.0824,0.474432 -0.24701,0.553455 -0.15804,0.07244 -0.34596,0.108519 -0.56327,0.108519 h -0.12816 v 0.414962 h 2.87424 v -0.414962 h -0.12816 c -0.21731,0 -0.40846,-0.03608 -0.57309,-0.108519 -0.15805,-0.07902 -0.23719,-0.263707 -0.23719,-0.553455 v -2.034503 h 0.8201 l 1.33325,2.222606 c 0.15146,0.250235 0.29632,0.44087 0.4346,0.572574 0.13829,0.125116 0.31974,0.210733 0.54364,0.256831 0.23048,0.03951 0.5498,0.05943 0.95808,0.05943 h 0.13797 v -0.414962 h -0.0294 c -0.20414,0 -0.38507,-0.0657 -0.54312,-0.197403 -0.15805,-0.131704 -0.32281,-0.329322 -0.49402,-0.59273 l -1.35341,-2.143538 c 0.23707,-0.07902 0.46431,-0.191021 0.68161,-0.335896 0.2239,-0.144873 0.40858,-0.335508 0.55346,-0.572575 0.14487,-0.243652 0.21704,-0.540337 0.21704,-0.889351 0,-1.27094 -0.84596,-1.906344 -2.53835,-1.906344 z m 6.58564,0 v 0.414961 h 0.12816 c 0.22389,0 0.41505,0.04255 0.57309,0.128159 0.15804,0.07902 0.2372,0.273405 0.2372,0.582909 v 4.80074 c 0,0.309502 -0.0792,0.507122 -0.2372,0.59273 -0.15804,0.07902 -0.3492,0.118338 -0.57309,0.118338 h -0.12816 v 0.414962 h 2.87425 v -0.414962 h -0.12816 c -0.2239,0 -0.41505,-0.03932 -0.57309,-0.118338 -0.15805,-0.08561 -0.2372,-0.283228 -0.2372,-0.59273 v -4.80074 c 0,-0.309504 0.0791,-0.503888 0.2372,-0.582909 0.15804,-0.08561 0.34919,-0.128159 0.57309,-0.128159 h 0.12816 v -0.414961 z m 6.48695,0 -2.19315,5.867341 c -0.11854,0.31609 -0.22679,0.523407 -0.32556,0.622184 -0.0922,0.09878 -0.23381,0.148312 -0.42478,0.148312 h -0.18811 v 0.414962 h 2.41019 v -0.414962 h -0.22686 c -0.43462,0 -0.65215,-0.161015 -0.65215,-0.48369 0,-0.125119 0.0296,-0.266737 0.0889,-0.424781 l 0.37517,-1.037145 h 2.59829 l 0.39481,1.105874 c 0.0263,0.07244 0.0462,0.138654 0.0594,0.197921 0.0132,0.05927 0.0196,0.115268 0.0196,0.16795 0,0.316087 -0.19761,0.473871 -0.59272,0.473871 h -0.22686 v 0.414962 h 2.71611 v -0.414962 h -0.12816 c -0.19097,0 -0.33906,-0.03608 -0.44442,-0.108519 -0.0988,-0.07244 -0.18439,-0.210822 -0.25683,-0.414962 l -2.23242,-6.114356 z m -17.20877,0.42478 c 0.73095,0 1.24465,0.269785 1.54099,0.809771 0.30292,0.539985 0.45475,1.300839 0.45475,2.282031 0,0.974608 -0.15183,1.734944 -0.45475,2.281513 -0.29634,0.54657 -0.81327,0.820105 -1.55081,0.820105 -0.73096,0 -1.25113,-0.273535 -1.56063,-0.820105 -0.30292,-0.546569 -0.45424,-1.306905 -0.45424,-2.281513 0,-0.981192 0.15132,-1.742046 0.45424,-2.282031 0.3095,-0.539986 0.8329,-0.809771 1.57045,-0.809771 z m 6.07198,0.04961 h 0.67179 c 0.55974,0 0.95498,0.112 1.18546,0.335896 0.23048,0.223896 0.34571,0.599212 0.34571,1.12603 0,0.513643 -0.10876,0.898662 -0.32607,1.155485 -0.21073,0.256821 -0.60597,0.38499 -1.18546,0.38499 h -0.69143 z m 11.31455,0.434599 c 0.0527,0.237066 0.12162,0.4837 0.20722,0.740524 0.0856,0.25682 0.18145,0.530354 0.28681,0.820102 l 0.61236,1.728579 h -2.23242 l 0.67179,-1.81746 c 0.11196,-0.309505 0.20404,-0.572823 0.27648,-0.790134 0.0725,-0.21731 0.13169,-0.444545 0.17776,-0.681611 z m -9.92136,9.857795 c -0.75729,0 -1.39269,0.154551 -1.90634,0.464056 -0.51364,0.302918 -0.90241,0.727775 -1.16582,1.274345 -0.25682,0.53998 -0.38499,1.16568 -0.38499,1.87688 0,0.73096 0.1217,1.36959 0.36535,1.91617 0.25024,0.53998 0.62555,0.9616 1.12603,1.26452 0.50706,0.30292 1.14246,0.45423 1.90634,0.45423 0.42804,0 0.81681,-0.0361 1.16583,-0.10852 0.34902,-0.079 0.68773,-0.19425 1.01699,-0.34571 v -1.77819 c 0,-0.3095 0.0662,-0.50336 0.19792,-0.58239 0.13829,-0.0856 0.2993,-0.12868 0.48369,-0.12868 h 0.0398 v -0.41496 h -2.56832 v 0.41496 h 0.0393 c 0.21731,0 0.40522,0.0398 0.56327,0.11886 0.16463,0.079 0.24701,0.26319 0.24701,0.55294 v 1.59008 c -0.13828,0.0395 -0.29659,0.0692 -0.47439,0.0889 -0.1778,0.0197 -0.36196,0.03 -0.55293,0.03 -0.89559,0 -1.531,-0.26332 -1.90635,-0.79014 -0.36877,-0.5334 -0.55345,-1.29425 -0.55345,-2.28203 0,-0.98778 0.1777,-1.74811 0.5333,-2.28151 0.3556,-0.539986 0.95168,-0.810287 1.788,-0.810287 0.32268,0 0.57952,0.0657 0.7705,0.197403 0.19097,0.125118 0.32611,0.286654 0.40514,0.484214 0.0856,0.19097 0.12816,0.38858 0.12816,0.59272 0.25682,0 0.47436,-0.0625 0.65216,-0.18758 0.1778,-0.12512 0.26664,-0.29312 0.26664,-0.50385 0,-0.316086 -0.18093,-0.579404 -0.54311,-0.790132 -0.36218,-0.210724 -0.90874,-0.316259 -1.6397,-0.316259 z m 9.61492,0 c -0.41487,0 -0.78695,0.07268 -1.11621,0.217559 -0.32267,0.138287 -0.57952,0.342371 -0.7705,0.612365 -0.18438,0.263407 -0.27646,0.582727 -0.27646,0.958087 0,0.53998 0.14808,0.97777 0.44441,1.31361 0.30291,0.33585 0.76062,0.62878 1.37305,0.87902 0.38852,0.15804 0.69168,0.30988 0.90898,0.45475 0.2239,0.14487 0.38168,0.30265 0.47388,0.47387 0.0988,0.16463 0.14831,0.36872 0.14831,0.61237 0,0.40169 -0.12494,0.71131 -0.37517,0.92862 -0.25024,0.21073 -0.59594,0.31626 -1.03715,0.31626 -0.3095,0 -0.55989,-0.0727 -0.75086,-0.21756 -0.19097,-0.15145 -0.33259,-0.34584 -0.42478,-0.5829 -0.0922,-0.24366 -0.14493,-0.50051 -0.15813,-0.7705 -0.22389,0 -0.39836,0.063 -0.52348,0.1881 -0.12512,0.11854 -0.18759,0.27632 -0.18759,0.47387 0,0.41487 0.16477,0.75087 0.49403,1.0077 0.33585,0.25681 0.8264,0.38498 1.47175,0.38498 0.74412,0 1.33323,-0.17447 1.76785,-0.52348 0.4412,-0.34901 0.66197,-0.83633 0.66197,-1.46192 0,-0.50706 -0.16153,-0.91523 -0.48421,-1.22474 -0.32267,-0.30949 -0.77339,-0.58303 -1.35289,-0.8201 -0.38194,-0.15805 -0.68509,-0.30613 -0.90898,-0.44442 -0.2239,-0.14487 -0.38492,-0.30589 -0.4837,-0.48369 -0.0922,-0.18439 -0.13849,-0.40839 -0.13849,-0.67179 0,-0.34244 0.10554,-0.61597 0.31626,-0.820109 0.21073,-0.204142 0.5069,-0.305924 0.88884,-0.305924 0.27658,0 0.49359,0.06246 0.65164,0.187584 0.16461,0.125119 0.27985,0.282906 0.34571,0.473879 0.0724,0.19097 0.10904,0.38859 0.10904,0.59272 0.23707,0 0.42447,-0.0522 0.56275,-0.15761 0.14488,-0.11195 0.21756,-0.27348 0.21756,-0.48421 0,-0.289744 -0.16153,-0.546599 -0.48421,-0.770494 -0.32267,-0.223896 -0.77714,-0.335897 -1.36322,-0.335897 z m -61.954355,0.0987 v 0.414962 h 0.128156 c 0.190971,0 0.339055,0.03608 0.444418,0.108519 0.105362,0.06585 0.190979,0.204237 0.256831,0.41496 l 2.133719,6.11435 h 0.720886 l 2.044838,-5.86734 c 0.111948,-0.322666 0.217482,-0.529985 0.316259,-0.622179 0.09878,-0.09878 0.243628,-0.14831 0.434599,-0.14831 h 0.187585 v -0.414962 h -2.410188 v 0.414962 h 0.227375 c 0.434623,0 0.65164,0.161533 0.65164,0.484199 0,0.0527 -0.0097,0.11839 -0.02945,0.19741 -0.01317,0.0724 -0.03309,0.14835 -0.05943,0.22737 l -1.086239,3.1409 c -0.105365,0.30292 -0.194214,0.58939 -0.266649,0.85937 -0.07244,0.27 -0.135425,0.52362 -0.188103,0.76068 -0.05268,-0.23706 -0.115147,-0.49391 -0.187587,-0.77049 -0.07244,-0.27658 -0.158054,-0.55981 -0.256831,-0.84956 l -1.086239,-3.21014 c -0.02634,-0.0724 -0.04626,-0.13866 -0.05943,-0.19791 -0.01317,-0.0593 -0.01964,-0.11477 -0.01964,-0.16743 0,-0.316099 0.197618,-0.474399 0.592731,-0.474399 h 0.226859 v -0.414962 z m 7.148398,0 v 0.414962 h 0.128675 c 0.223896,0 0.414531,0.04307 0.572574,0.128672 0.158047,0.07902 0.237197,0.272889 0.237197,0.582387 v 4.80074 c 0,0.3095 -0.07915,0.50713 -0.237197,0.59273 -0.158043,0.079 -0.348678,0.11834 -0.572574,0.11834 h -0.128675 v 0.41496 h 2.874762 v -0.41496 H 74.97785 c -0.223896,0 -0.415047,-0.0393 -0.573093,-0.11834 -0.158043,-0.0856 -0.236678,-0.28323 -0.236678,-0.59273 v -4.80074 c 0,-0.309498 0.07863,-0.503364 0.236678,-0.582387 0.158046,-0.08561 0.349197,-0.128672 0.573093,-0.128672 h 0.128675 v -0.414962 z m 3.602882,0 -0.04961,1.728571 H 76.2987 l 0.04961,-0.42478 c 0.02634,-0.21731 0.09527,-0.40471 0.207221,-0.562751 0.111948,-0.164629 0.312799,-0.247015 0.602546,-0.247015 h 0.948264 v 5.482346 c 0,0.28976 -0.08239,0.47392 -0.247015,0.55294 -0.158043,0.0724 -0.345442,0.10852 -0.562755,0.10852 h -0.227375 v 0.41496 h 3.072162 v -0.41496 h -0.227375 c -0.223896,0 -0.415047,-0.0393 -0.573093,-0.11834 -0.158044,-0.0856 -0.236678,-0.28323 -0.236678,-0.59273 v -5.432736 h 0.958083 c 0.296333,0 0.500417,0.08239 0.612365,0.247015 0.111948,0.158041 0.180882,0.345441 0.207221,0.562751 l 0.04961,0.42478 h 0.513664 l -0.04961,-1.728571 z m 8.452196,0 -2.192631,5.867341 c -0.118533,0.31608 -0.227301,0.52392 -0.326078,0.6227 -0.09219,0.0988 -0.233809,0.14779 -0.42478,0.14779 h -0.187585 v 0.41496 h 2.410188 v -0.41496 H 83.33858 c -0.434623,0 -0.65164,-0.16101 -0.65164,-0.48369 0,-0.12511 0.02962,-0.26673 0.08888,-0.42478 l 0.375169,-1.03715 h 2.597774 l 0.395325,1.10639 c 0.02634,0.0725 0.04574,0.13815 0.05891,0.19741 0.01317,0.0593 0.02015,0.11528 0.02015,0.16796 0,0.31609 -0.197617,0.47387 -0.592727,0.47387 h -0.227378 v 0.41496 h 2.716631 v -0.41496 h -0.128675 c -0.190968,0 -0.339053,-0.0361 -0.444415,-0.10852 -0.09878,-0.0724 -0.184396,-0.21082 -0.256834,-0.41496 l -2.232422,-6.114361 z m 4.313949,0 v 0.414962 h 0.128159 c 0.223893,0 0.415047,0.04307 0.57309,0.128672 0.158047,0.07902 0.237197,0.272889 0.237197,0.582387 v 4.85035 c 0,0.28976 -0.08239,0.47392 -0.247015,0.55294 -0.158044,0.0724 -0.345961,0.10852 -0.563272,0.10852 H 88.60079 v 0.41496 h 5.294252 l 0.06924,-1.72858 H 93.45062 l -0.06925,0.42479 c -0.03293,0.2173 -0.121777,0.40845 -0.266649,0.57309 -0.13829,0.15804 -0.362289,0.23668 -0.671796,0.23668 h -1.906341 v -2.95331 h 2.380731 v -0.48421 h -2.380731 v -2.627226 h 1.659845 c 0.296333,0 0.506886,0.08239 0.632004,0.247015 0.131705,0.158041 0.210855,0.345441 0.237194,0.562751 l 0.04909,0.42478 h 0.513662 l -0.04909,-1.728571 z m 8.933823,0 v 0.414962 h 0.128157 c 0.21731,0 0.405227,0.03932 0.563274,0.118338 0.164629,0.07902 0.247012,0.263704 0.247012,0.553451 v 4.88962 c 0,0.28976 -0.08238,0.47392 -0.247012,0.55294 -0.158047,0.0724 -0.345964,0.10852 -0.563274,0.10852 h -0.128157 v 0.41496 h 2.281513 v -0.41496 h -0.02946 c -0.223893,0 -0.398362,-0.0393 -0.523481,-0.11834 -0.125119,-0.0856 -0.188103,-0.28323 -0.188103,-0.59273 v -5.166084 l 2.291858,6.292114 h 0.5333 l 2.26239,-6.311751 v 5.274611 c -0.0132,0.26998 -0.0826,0.44122 -0.20774,0.51366 -0.12512,0.0724 -0.29312,0.10852 -0.50384,0.10852 h -0.0295 v 0.41496 h 2.62723 v -0.41496 h -0.12816 c -0.22389,0 -0.41504,-0.0393 -0.57309,-0.11834 -0.15804,-0.0856 -0.23668,-0.28323 -0.23668,-0.59273 v -4.80074 c 0,-0.309498 0.0786,-0.503364 0.23668,-0.582387 0.15805,-0.08561 0.3492,-0.128672 0.57309,-0.128672 h 0.12816 v -0.414962 h -2.19263 l -2.02468,5.650301 -2.044844,-5.650301 z m 12.126907,0 -2.19263,5.867341 c -0.11853,0.31608 -0.2273,0.52392 -0.32608,0.6227 -0.0922,0.0988 -0.23381,0.14779 -0.42478,0.14779 h -0.18758 v 0.41496 h 2.40967 v -0.41496 h -0.22686 c -0.43462,0 -0.65216,-0.16101 -0.65216,-0.48369 0,-0.12511 0.0296,-0.26673 0.0889,-0.42478 l 0.37569,-1.03715 h 2.59778 l 0.39481,1.10639 c 0.0263,0.0725 0.0462,0.13815 0.0594,0.19741 0.0132,0.0593 0.0196,0.11528 0.0196,0.16796 0,0.31609 -0.1971,0.47387 -0.59221,0.47387 h -0.22738 v 0.41496 h 2.71611 v -0.41496 h -0.12815 c -0.19097,0 -0.33905,-0.0361 -0.44442,-0.10852 -0.0988,-0.0724 -0.18439,-0.21082 -0.25683,-0.41496 l -2.23242,-6.114361 z m 11.27476,0 v 0.414962 h 0.12816 c 0.2239,0 0.41505,0.04307 0.57309,0.128672 0.15805,0.07902 0.2372,0.272889 0.2372,0.582387 v 4.80074 c 0,0.3095 -0.0791,0.50713 -0.2372,0.59273 -0.15804,0.079 -0.34919,0.11834 -0.57309,0.11834 h -0.12816 v 0.41496 h 2.87425 v -0.41496 h -0.12816 c -0.22389,0 -0.41505,-0.0393 -0.57309,-0.11834 -0.15805,-0.0856 -0.2372,-0.28323 -0.2372,-0.59273 v -4.80074 c 0,-0.309498 0.0791,-0.503364 0.2372,-0.582387 0.15804,-0.08561 0.3492,-0.128672 0.57309,-0.128672 h 0.12816 v -0.414962 z m 8.88422,0 -0.0491,1.728571 h 0.51367 l 0.0491,-0.42478 c 0.0263,-0.21731 0.0958,-0.40471 0.20774,-0.562751 0.11194,-0.164629 0.3128,-0.247015 0.60255,-0.247015 h 0.94826 v 5.482346 c 0,0.28976 -0.0824,0.47392 -0.24702,0.55294 -0.15804,0.0724 -0.34595,0.10852 -0.56327,0.10852 h -0.22686 v 0.41496 h 3.07165 v -0.41496 h -0.22686 c -0.22389,0 -0.41505,-0.0393 -0.57309,-0.11834 -0.15804,-0.0856 -0.2372,-0.28323 -0.2372,-0.59273 v -5.432736 h 0.95808 c 0.29634,0 0.50042,0.08239 0.61237,0.247015 0.11196,0.158041 0.18141,0.345441 0.20774,0.562751 l 0.0491,0.42478 h 0.51367 l -0.0491,-1.728571 z m 6.28953,0 v 0.414962 h 0.12816 c 0.21731,0 0.40523,0.03932 0.56327,0.118338 0.16463,0.07902 0.24702,0.263704 0.24702,0.553451 v 4.88962 c 0,0.28976 -0.0824,0.47392 -0.24702,0.55294 -0.15804,0.0724 -0.34596,0.10852 -0.56327,0.10852 h -0.12816 v 0.41496 h 2.87425 v -0.41496 h -0.12816 c -0.21731,0 -0.40847,-0.0361 -0.57309,-0.10852 -0.15805,-0.079 -0.2372,-0.26318 -0.2372,-0.55294 v -2.03502 h 0.82011 l 1.33325,2.22261 c 0.15146,0.25024 0.29631,0.44087 0.4346,0.57257 0.13829,0.12515 0.31923,0.21077 0.54312,0.25684 0.23049,0.0395 0.55032,0.0594 0.9586,0.0594 h 0.13797 v -0.41496 h -0.0294 c -0.20414,0 -0.38508,-0.0657 -0.54312,-0.1974 -0.15805,-0.13171 -0.32281,-0.32933 -0.49403,-0.59273 l -1.3534,-2.14354 c 0.23706,-0.079 0.46429,-0.19102 0.68161,-0.3359 0.22389,-0.14487 0.40858,-0.33551 0.55345,-0.57257 0.14488,-0.24365 0.21704,-0.54034 0.21704,-0.88935 0,-1.270939 -0.84595,-1.906341 -2.53834,-1.906341 z m 9.34155,0 -2.19314,5.867341 c -0.11854,0.31608 -0.22679,0.52392 -0.32557,0.6227 -0.0922,0.0988 -0.2338,0.14779 -0.42478,0.14779 h -0.1881 v 0.41496 h 2.41019 v -0.41496 h -0.22686 c -0.43462,0 -0.65216,-0.16101 -0.65216,-0.48369 0,-0.12511 0.0296,-0.26673 0.0889,-0.42478 l 0.37517,-1.03715 h 2.59829 l 0.39481,1.10639 c 0.0263,0.0725 0.0462,0.13815 0.0594,0.19741 0.0132,0.0593 0.0196,0.11528 0.0196,0.16796 0,0.31609 -0.19762,0.47387 -0.59273,0.47387 h -0.22686 v 0.41496 h 2.71612 v -0.41496 h -0.12816 c -0.19097,0 -0.33906,-0.0361 -0.44442,-0.10852 -0.0988,-0.0724 -0.18439,-0.21082 -0.25683,-0.41496 l -2.23242,-6.114361 z m -7.40575,0.47439 h 0.6718 c 0.55974,0 0.95497,0.112001 1.18546,0.335897 0.23047,0.223884 0.34571,0.599214 0.34571,1.126024 0,0.51365 -0.10877,0.89867 -0.32608,1.15548 -0.21072,0.25683 -0.60596,0.38551 -1.18545,0.38551 h -0.69144 z M 84.46461,100.028 c 0.05268,0.23707 0.122131,0.4837 0.207737,0.74052 0.08561,0.25682 0.180925,0.53036 0.28629,0.82011 l 0.612365,1.72858 H 83.33858 l 0.671793,-1.81746 c 0.111948,-0.3095 0.204033,-0.57282 0.276468,-0.79014 0.07244,-0.2173 0.131675,-0.44454 0.177769,-0.68161 z m 25.37468,0 c 0.0527,0.23707 0.12161,0.4837 0.20722,0.74052 0.0856,0.25682 0.18144,0.53036 0.2868,0.82011 l 0.61237,1.72858 h -2.23242 l 0.67179,-1.81746 c 0.11195,-0.3095 0.20403,-0.57282 0.27647,-0.79014 0.0724,-0.2173 0.13163,-0.44454 0.17777,-0.68161 z m 35.79006,0 c 0.0527,0.23707 0.12162,0.4837 0.20722,0.74052 0.0856,0.25682 0.18144,0.53036 0.28681,0.82011 l 0.61236,1.72858 h -2.23242 l 0.67179,-1.81746 c 0.11195,-0.3095 0.20403,-0.57282 0.27647,-0.79014 0.0725,-0.2173 0.1317,-0.44454 0.17777,-0.68161 z"
         style="font-style:normal;font-variant:normal;font-weight:normal;font-stretch:normal;font-size:37.3333px;line-height:1.1;font-family:'Noto Serif';-inkscape-font-specification:'Noto Serif';text-align:center;letter-spacing:0.4px;word-spacing:0px;text-anchor:middle;fill:#a00300;fill-opacity:1;stroke:none;stroke-width:0.264583" />
    </g>
    <flowRoot
       xml:space="preserve"
       id="flowRoot5708"
       style="font-style:normal;font-variant:normal;font-weight:normal;font-stretch:normal;font-size:40px;line-height:1.25;font-family:Quattrocento;-inkscape-font-specification:Quattrocento;letter-spacing:0px;word-spacing:0px;fill:#000000;fill-opacity:1;stroke:none"
       transform="scale(0.26458333)"><flowRegion
         id="flowRegion5710"
         style="font-style:normal;font-variant:normal;font-weight:normal;font-stretch:normal;font-family:Quattrocento;-inkscape-font-specification:Quattrocento"><rect
           id="rect5712"
           width="150.71428"
           height="60"
           x="330.71429"
           y="750.37683"
           style="font-style:normal;font-variant:normal;font-weight:normal;font-stretch:normal;font-family:Quattrocento;-inkscape-font-specification:Quattrocento" /></flowRegion><flowPara
         id="flowPara5714" /></flowRoot>
    <flowRoot
       xml:space="preserve"
       id="flowRoot5730"
       style="font-style:normal;font-variant:normal;font-weight:normal;font-stretch:normal;font-size:37.3333px;line-height:1.25;font-family:Quattrocento;-inkscape-font-specification:Quattrocento;letter-spacing:0px;word-spacing:0px;fill:#000000;fill-opacity:1;stroke:none"
       transform="scale(0.26458333)"><flowRegion
         id="flowRegion5732"
         style="font-style:normal;font-variant:normal;font-weight:normal;font-stretch:normal;font-size:37.3333px;font-family:Quattrocento;-inkscape-font-specification:Quattrocento"><rect
           id="rect5734"
           width="947.52307"
           height="109.09647"
           x="-134.35028"
           y="403.29108"
           style="font-style:normal;font-variant:normal;font-weight:normal;font-stretch:normal;font-size:37.33333206px;font-family:Quattrocento;-inkscape-font-specification:Quattrocento" /></flowRegion><flowPara
         id="flowPara5736" /></flowRoot>
  </g>
</svg>
