<?xml version="1.0" standalone="no"?>
<!DOCTYPE svg PUBLIC "-//W3C//DTD SVG 20010904//EN"
 "http://www.w3.org/TR/2001/REC-SVG-20010904/DTD/svg10.dtd">
<svg version="1.0" xmlns="http://www.w3.org/2000/svg"
 width="700.000000pt" height="700.000000pt" viewBox="0 0 700.000000 700.000000"
 preserveAspectRatio="xMidYMid meet">
<metadata>
Created by potrace 1.14, written by Peter Selinger 2001-2017
</metadata>
<g transform="translate(0.000000,700.000000) scale(0.100000,-0.100000)"
fill="#000000" stroke="none">
<path d="M2195 6541 c-60 -15 -124 -50 -169 -91 -48 -45 -110 -146 -102 -167
4 -9 27 -12 84 -9 94 3 168 34 235 95 43 40 113 153 103 169 -6 10 -114 12
-151 3z"/>
<path d="M4654 6538 c-10 -15 59 -128 103 -169 68 -62 143 -93 235 -96 43 -1
80 2 83 7 9 14 -41 106 -82 151 -39 43 -101 83 -155 101 -41 13 -177 18 -184
6z"/>
<path d="M1815 6491 c-137 -79 -197 -208 -170 -361 3 -19 8 -36 10 -38 2 -3
27 12 55 33 105 77 161 185 165 318 2 42 0 77 -4 77 -3 0 -28 -13 -56 -29z"/>
<path d="M5124 6437 c6 -133 67 -245 173 -319 25 -16 46 -28 48 -26 6 6 16 71
17 109 1 80 -36 169 -93 228 -31 30 -124 91 -141 91 -4 0 -6 -37 -4 -83z"/>
<path d="M1495 6285 c-71 -55 -102 -92 -126 -155 -31 -81 -35 -149 -14 -225 9
-36 21 -65 26 -65 13 0 74 62 108 109 59 83 86 235 62 345 l-6 29 -50 -38z"/>
<path d="M5445 6268 c-16 -108 -2 -194 46 -290 19 -38 111 -138 127 -138 5 0
15 19 22 43 51 163 -10 323 -160 420 l-28 18 -7 -53z"/>
<path d="M1829 6163 c-18 -7 -48 -25 -67 -39 -40 -31 -34 -42 39 -74 70 -29
159 -30 221 0 73 34 76 43 26 78 -24 16 -54 33 -68 37 -43 14 -117 13 -151 -2z"/>
<path d="M2919 6170 l-135 -5 -2 -50 c-2 -60 13 -102 39 -110 24 -8 35 -30 38
-80 14 -222 148 -441 375 -613 93 -70 123 -111 129 -173 7 -74 -28 -131 -116
-191 -221 -149 -375 -402 -390 -643 -2 -30 -8 -42 -26 -52 -35 -17 -48 -47
-50 -114 l-2 -59 53 0 c63 -1 1319 -1 1364 0 l31 0 -1 63 c-2 70 -12 93 -47
111 -21 10 -25 21 -31 87 -12 133 -75 282 -172 407 -57 74 -93 108 -201 190
-101 77 -127 115 -128 188 -1 72 24 107 128 187 213 160 326 331 371 562 2 11
5 41 5 68 2 41 5 48 26 53 33 9 46 39 49 112 l3 62 -222 0 c-122 0 -386 1
-587 3 -201 1 -426 0 -501 -3z m1157 -249 c-17 -209 -144 -407 -361 -563 -107
-77 -147 -148 -141 -247 6 -88 44 -148 134 -213 226 -165 350 -355 368 -568
l7 -70 -578 0 -578 0 6 73 c14 195 152 411 349 551 134 94 170 172 145 307
-11 55 -57 111 -144 175 -137 101 -238 219 -297 346 -31 69 -62 210 -57 266 1
9 123 12 577 12 l576 0 -6 -69z"/>
<path d="M3083 5697 c-15 -25 139 -201 229 -263 24 -16 49 -34 55 -41 7 -6 23
-20 36 -30 34 -26 76 -92 89 -138 10 -38 11 -38 18 -15 11 38 46 102 72 131
13 14 57 50 98 80 41 31 98 79 126 107 58 59 130 159 121 168 -9 10 -838 10
-844 1z"/>
<path d="M3487 5078 c-21 -11 -23 -71 -3 -87 30 -25 64 16 52 64 -7 27 -26 36
-49 23z"/>
<path d="M3488 4899 c-25 -14 -24 -75 1 -89 40 -21 70 50 35 84 -8 9 -16 16
-17 16 -1 0 -10 -5 -19 -11z"/>
<path d="M3470 4649 c-23 -24 -60 -45 -110 -63 -143 -53 -242 -106 -296 -162
-28 -28 -54 -61 -57 -73 l-5 -21 505 0 504 0 -23 41 c-42 76 -156 151 -298
199 -84 28 -152 65 -170 93 l-15 22 -35 -36z"/>
<path d="M5031 6169 c-19 -6 -54 -24 -78 -41 -51 -34 -48 -42 22 -77 68 -34
152 -33 233 4 34 15 62 31 62 36 0 9 -53 50 -88 68 -31 17 -111 21 -151 10z"/>
<path d="M1189 6032 c-133 -136 -157 -316 -65 -481 14 -24 14 -24 61 39 70 96
97 178 97 294 0 67 -30 186 -47 186 -5 -1 -26 -17 -46 -38z"/>
<path d="M5746 6053 c-54 -189 -27 -349 81 -481 l36 -44 23 43 c34 64 47 116
46 185 -1 101 -41 192 -121 276 -40 42 -57 47 -65 21z"/>
<path d="M1564 5946 c-28 -13 -65 -41 -82 -62 l-32 -39 52 -18 c62 -21 136
-24 195 -8 44 12 127 69 126 86 0 6 -19 21 -43 34 -63 35 -150 38 -216 7z"/>
<path d="M5270 5961 c-36 -12 -88 -39 -95 -50 -8 -15 82 -80 129 -92 22 -6 61
-11 86 -12 49 0 150 29 150 44 0 17 -45 61 -87 86 -46 27 -138 39 -183 24z"/>
<path d="M904 5717 c-82 -114 -104 -180 -101 -301 3 -71 8 -93 35 -147 18 -35
43 -77 56 -93 l24 -28 35 64 c88 156 92 340 11 500 -13 26 -25 48 -27 48 -1
-1 -16 -20 -33 -43z"/>
<path d="M6032 5706 c-40 -92 -53 -149 -53 -234 0 -98 19 -173 68 -261 l35
-63 24 28 c13 16 38 58 56 93 27 54 32 75 34 150 2 60 -3 103 -15 142 -18 56
-75 151 -108 181 -17 15 -20 13 -41 -36z"/>
<path d="M1397 5718 c-21 -4 -57 -21 -81 -37 -41 -28 -96 -96 -96 -118 0 -16
109 -29 169 -21 74 11 136 44 183 97 43 49 41 53 -27 73 -52 15 -101 17 -148
6z"/>
<path d="M5485 5720 c-16 -4 -46 -14 -65 -22 l-35 -15 55 -55 c79 -77 161
-101 288 -83 62 8 64 17 19 77 -56 74 -174 119 -262 98z"/>
<path d="M1161 5394 c-60 -27 -113 -81 -144 -147 l-24 -52 66 -3 c126 -6 228
40 297 134 21 30 40 59 42 64 5 14 -74 31 -134 29 -32 -2 -76 -12 -103 -25z"/>
<path d="M5645 5414 c-46 -12 -47 -12 -30 -45 29 -54 95 -118 154 -146 45 -21
74 -28 148 -31 l92 -4 -22 52 c-25 60 -82 122 -141 152 -40 21 -155 33 -201
22z"/>
<path d="M616 5272 c-19 -38 -41 -93 -49 -123 -26 -102 -6 -254 46 -339 24
-40 106 -130 117 -130 9 0 57 130 65 175 15 83 5 197 -26 287 -18 55 -101 198
-114 198 -2 0 -20 -31 -39 -68z"/>
<path d="M6312 5298 c-78 -114 -112 -219 -112 -343 -1 -87 6 -123 38 -209 l28
-77 50 53 c66 71 89 109 112 193 21 77 22 172 2 245 -12 43 -76 180 -85 180
-2 0 -17 -19 -33 -42z"/>
<path d="M1093 5039 c-88 -11 -169 -61 -222 -137 -25 -36 -65 -151 -56 -160 3
-3 38 0 77 6 152 26 253 108 309 249 l16 41 -36 4 c-20 1 -59 0 -88 -3z"/>
<path d="M5824 5042 l-42 -3 17 -43 c39 -104 121 -187 225 -228 42 -16 166
-36 166 -26 0 21 -37 119 -57 152 -48 76 -132 133 -211 143 -20 2 -41 5 -47 6
-5 1 -29 1 -51 -1z"/>
<path d="M401 4788 c-30 -71 -50 -178 -46 -248 6 -91 11 -113 50 -196 35 -76
90 -139 170 -194 l43 -30 11 48 c54 239 4 432 -156 607 l-53 58 -19 -45z"/>
<path d="M6525 4774 c-69 -77 -122 -166 -148 -249 -26 -83 -31 -266 -9 -352
l14 -53 43 30 c165 114 249 306 215 492 -12 63 -51 188 -59 188 -4 0 -29 -25
-56 -56z"/>
<path d="M972 4594 c-87 -20 -156 -67 -213 -144 -37 -49 -56 -106 -64 -183
l-7 -66 81 28 c161 58 248 148 290 301 12 41 21 75 21 75 0 5 -73 -3 -108 -11z"/>
<path d="M5936 4548 c38 -162 128 -259 296 -319 l80 -28 -5 57 c-11 106 -42
175 -108 241 -62 62 -124 90 -236 106 l-41 6 14 -63z"/>
<path d="M245 4217 c-33 -137 -29 -281 8 -380 54 -139 134 -228 263 -292 39
-19 74 -35 79 -35 4 0 5 60 2 133 -4 108 -10 146 -31 207 -51 144 -142 265
-267 355 -48 34 -49 34 -54 12z"/>
<path d="M6693 4199 c-125 -94 -208 -205 -259 -349 -22 -62 -28 -98 -32 -207
-2 -73 -2 -133 2 -133 3 0 14 4 24 9 9 6 42 21 72 35 110 52 195 149 247 283
21 54 27 89 29 168 2 84 -14 217 -27 229 -2 2 -27 -14 -56 -35z"/>
<path d="M914 4096 c-109 -40 -174 -99 -227 -206 -29 -59 -32 -73 -34 -173
l-3 -108 79 41 c165 86 264 234 270 408 3 72 4 71 -85 38z"/>
<path d="M5994 4112 c2 -4 5 -32 7 -62 6 -132 73 -259 178 -341 59 -45 159
-101 165 -91 12 20 3 182 -13 230 -27 78 -85 156 -148 198 -65 43 -205 92
-189 66z"/>
<path d="M2242 3971 c-4 -4 -7 -40 -7 -81 l0 -75 30 5 c17 3 570 5 1230 5 660
0 1211 -2 1225 -5 25 -5 25 -4 28 75 l3 80 -1251 1 c-688 0 -1254 -2 -1258 -5z"/>
<path d="M2430 3729 c-164 -7 -229 -22 -334 -77 -88 -46 -200 -155 -243 -237
-129 -245 -63 -511 162 -657 261 -170 612 -67 697 204 37 119 17 223 -57 306
-111 124 -313 143 -429 42 -82 -72 -106 -193 -53 -264 34 -43 69 -63 126 -70
86 -9 118 -70 65 -122 -23 -24 -30 -25 -84 -20 -121 11 -240 100 -275 206 -67
201 92 436 320 475 192 32 396 -56 497 -215 l29 -45 642 -1 642 0 37 57 c20
32 60 76 90 100 238 189 581 127 700 -127 40 -85 44 -192 11 -265 -67 -149
-316 -250 -368 -149 -27 53 4 96 74 105 110 14 168 80 158 178 -7 67 -27 107
-75 153 -138 130 -394 71 -482 -111 -72 -149 10 -363 178 -461 179 -105 443
-63 603 97 132 132 169 313 104 510 -41 122 -163 256 -290 318 -117 57 -149
64 -320 68 -272 7 -1971 8 -2125 2z"/>
<path d="M946 3569 c-87 -44 -134 -85 -178 -153 -67 -103 -87 -221 -59 -346
18 -84 22 -88 67 -54 111 83 193 196 229 314 16 57 20 179 7 238 l-7 32 -59
-31z"/>
<path d="M5985 3552 c-31 -209 40 -373 231 -530 l51 -42 12 43 c33 125 34 202
2 292 -46 130 -122 209 -263 271 -26 12 -26 12 -33 -34z"/>
<path d="M176 3571 c-7 -13 3 -218 13 -264 39 -166 161 -324 303 -390 50 -23
187 -62 194 -55 6 7 -27 190 -43 236 -47 140 -160 297 -268 372 -56 38 -194
109 -199 101z"/>
<path d="M6740 3536 c-41 -23 -93 -53 -116 -68 -95 -62 -222 -236 -264 -363
-17 -50 -50 -208 -50 -238 0 -11 64 1 142 29 86 29 166 82 223 148 52 59 118
187 135 263 13 58 22 261 12 266 -4 2 -41 -15 -82 -37z"/>
<path d="M3403 3182 l-612 -2 9 -25 c15 -39 5 -164 -17 -227 -20 -54 -58 -117
-102 -167 -12 -13 -21 -26 -21 -28 0 -1 376 -3 835 -3 l835 0 -45 55 c-89 110
-128 253 -100 372 5 21 2 22 -82 25 -49 2 -364 2 -700 0z"/>
<path d="M1054 3024 c-147 -110 -213 -250 -201 -425 4 -62 13 -93 46 -164 l41
-88 58 74 c84 106 121 177 149 284 15 57 11 197 -7 259 -29 104 -29 103 -86
60z"/>
<path d="M5886 3048 c-2 -7 -13 -41 -24 -74 -20 -62 -24 -199 -8 -267 25 -106
62 -177 147 -285 l58 -73 29 58 c81 159 82 313 4 457 -45 84 -196 218 -206
184z"/>
<path d="M226 2822 c28 -198 88 -332 198 -445 111 -113 238 -167 400 -170 53
-1 96 1 96 4 0 22 -77 201 -109 253 -62 103 -156 200 -262 271 -78 53 -112 68
-237 105 l-93 28 7 -46z"/>
<path d="M6750 2860 c-14 -5 -55 -18 -92 -29 -38 -12 -92 -32 -121 -46 -125
-56 -278 -200 -354 -330 -36 -61 -106 -232 -99 -243 5 -8 153 -7 199 2 148 27
304 142 390 288 40 67 81 183 91 258 3 25 9 60 12 78 3 17 5 32 3 31 -2 0 -15
-4 -29 -9z"/>
<path d="M2655 2639 c-16 -11 -52 -32 -80 -46 -60 -31 -55 -26 -60 -50 -3 -21
-1 -21 966 -21 533 0 969 3 970 7 0 3 2 14 4 24 2 12 -6 22 -23 30 -15 6 -51
26 -80 44 l-52 33 -808 0 c-796 0 -807 0 -837 -21z"/>
<path d="M1269 2498 c-126 -144 -168 -279 -140 -441 17 -100 50 -163 133 -255
l39 -42 30 67 c17 38 37 82 45 99 27 61 47 160 49 250 3 113 -20 207 -73 303
l-38 70 -45 -51z"/>
<path d="M5647 2478 c-53 -97 -70 -161 -71 -263 -1 -149 17 -227 85 -372 l39
-84 44 50 c92 103 127 188 132 317 5 140 -28 232 -131 357 -26 31 -51 57 -55
57 -5 0 -24 -28 -43 -62z"/>
<path d="M2385 2405 c-14 -13 -25 -35 -25 -48 0 -27 33 -67 58 -68 9 -1 491
-2 1071 -3 866 -1 1059 1 1082 12 48 24 48 96 -1 122 -12 7 -379 10 -1090 10
l-1071 0 -24 -25z"/>
<path d="M2735 2202 l-60 -3 2 -67 c1 -37 2 -70 2 -73 1 -4 31 -6 69 -6 111 2
193 -52 228 -150 9 -27 13 -101 14 -258 l0 -220 59 -59 c33 -32 83 -96 113
-142 40 -63 58 -83 76 -84 l22 0 0 370 c0 352 1 372 21 414 39 83 119 132 214
129 71 -2 118 -20 161 -62 68 -67 68 -66 68 -478 l1 -373 30 0 c26 0 35 8 64
57 34 56 131 178 161 200 13 10 15 47 16 250 1 202 3 244 18 274 41 86 138
139 241 132 l54 -4 -2 76 -1 75 -31 0 c-169 3 -1495 4 -1540 2z"/>
<path d="M413 2116 c88 -229 160 -337 289 -434 174 -132 385 -161 595 -81 l26
10 -20 22 c-11 12 -40 51 -66 87 -96 137 -226 243 -391 320 -96 46 -181 68
-292 75 -44 3 -94 8 -113 11 -26 3 -32 1 -28 -10z"/>
<path d="M6517 2124 c-1 -1 -36 -4 -77 -8 -113 -9 -194 -33 -306 -87 -103 -49
-211 -124 -273 -189 -18 -19 -67 -80 -108 -135 l-74 -100 83 -23 c272 -78 538
28 702 278 34 52 126 245 126 265 0 4 -68 3 -73 -1z"/>
<path d="M1576 1998 c-53 -108 -68 -167 -67 -262 1 -117 44 -231 119 -317 38
-42 178 -146 187 -137 2 2 9 35 15 73 6 39 13 81 16 95 10 50 4 211 -11 278
-27 129 -71 213 -163 310 l-50 53 -46 -93z"/>
<path d="M5320 2028 c-71 -78 -92 -110 -122 -188 -41 -104 -61 -277 -45 -390
12 -80 29 -170 33 -170 17 0 158 107 189 142 148 172 155 411 17 638 l-18 28
-54 -60z"/>
<path d="M2721 1979 c-45 -9 -82 -38 -103 -80 -14 -27 -18 -60 -18 -160 l0
-126 68 -16 c37 -9 106 -36 155 -61 l87 -44 0 192 c0 172 -2 194 -20 223 -34
57 -102 86 -169 72z"/>
<path d="M3445 1974 c-51 -17 -93 -60 -101 -103 -5 -27 -9 -713 -5 -791 1 -13
23 -15 138 -13 76 0 146 2 155 2 16 1 17 31 15 409 -2 375 -3 409 -20 434 -39
57 -118 84 -182 62z"/>
<path d="M4189 1978 c-40 -10 -79 -41 -99 -78 -10 -18 -15 -76 -16 -215 -1
-104 0 -193 2 -197 3 -3 30 9 61 28 62 37 150 73 201 81 18 3 36 13 41 22 4 9
7 71 6 138 -1 110 -4 125 -25 156 -13 19 -32 39 -41 46 -31 19 -92 28 -130 19z"/>
<path d="M2025 1687 c-20 -69 -32 -163 -29 -222 11 -200 143 -388 316 -451 54
-20 160 -46 165 -41 8 8 -28 223 -48 292 -44 147 -134 298 -220 366 -24 20
-72 52 -106 72 l-63 36 -15 -52z"/>
<path d="M4868 1684 c-89 -53 -151 -117 -210 -217 -71 -121 -103 -232 -133
-450 l-7 -49 34 7 c96 21 188 58 244 99 150 109 234 315 203 496 -20 114 -33
160 -43 160 -6 0 -46 -21 -88 -46z"/>
<path d="M2544 1438 c7 -91 23 -191 35 -217 56 -117 73 -143 136 -206 75 -75
160 -124 250 -146 46 -10 251 -16 260 -7 5 4 -67 175 -100 238 -77 149 -230
300 -369 363 -33 16 -185 57 -209 57 -5 0 -6 -37 -3 -82z"/>
<path d="M4339 1494 c-54 -14 -113 -38 -158 -66 -115 -68 -243 -206 -306 -328
-31 -60 -105 -234 -101 -237 2 -3 50 -5 107 -5 181 -2 284 38 403 157 117 115
161 224 172 422 5 95 14 90 -117 57z"/>
<path d="M1028 1445 c-2 -1 -25 -6 -53 -9 -27 -4 -83 -12 -123 -19 l-74 -12
67 -90 c84 -113 134 -165 210 -220 131 -93 260 -136 412 -136 125 0 231 38
367 129 54 37 57 41 38 51 -11 6 -28 18 -36 27 -9 9 -66 49 -126 89 -130 87
-275 146 -415 171 -16 2 -38 7 -48 10 -20 6 -213 14 -219 9z"/>
<path d="M5750 1434 c-205 -36 -361 -103 -534 -230 l-105 -77 47 -34 c186
-134 375 -167 582 -102 170 54 318 174 444 363 l34 51 -72 12 c-39 7 -87 15
-106 19 -70 12 -217 11 -290 -2z"/>
<path d="M1968 955 c-2 -2 -32 -5 -68 -8 -88 -8 -162 -24 -240 -51 -80 -28
-290 -128 -290 -138 0 -15 208 -161 275 -193 237 -114 511 -105 713 22 58 37
159 136 209 205 l31 44 -141 46 c-182 60 -219 67 -384 72 -57 2 -104 2 -105 1z"/>
<path d="M4888 955 c-2 -1 -37 -5 -78 -8 -108 -9 -400 -96 -400 -119 0 -12 87
-116 137 -165 109 -108 264 -171 435 -177 69 -3 109 1 203 18 53 10 147 45
204 77 60 34 241 167 241 177 0 10 -237 122 -303 143 -92 29 -213 49 -329 53
-59 2 -109 2 -110 1z"/>
<path d="M3009 766 c-2 -2 -25 -6 -50 -9 -209 -25 -504 -164 -664 -312 -135
-126 -157 -147 -153 -150 12 -12 171 -69 255 -91 332 -89 692 36 868 302 35
53 110 203 117 234 2 10 -6 16 -22 17 -59 6 -346 13 -351 9z"/>
<path d="M3737 764 c-2 -3 -30 -5 -61 -5 -31 -1 -58 -4 -60 -8 -9 -14 105
-231 150 -288 57 -70 75 -88 141 -136 182 -133 441 -185 666 -132 73 17 267
83 280 95 10 9 -109 126 -206 203 -151 120 -370 220 -577 262 -41 8 -326 16
-333 9z"/>
</g>
</svg>
